<svg width="56" height="56" viewBox="0 0 56 56" fill="none" xmlns="http://www.w3.org/2000/svg">
<path d="M45.5615 18.955C45.1183 18.9018 44.6956 18.9682 44.317 19.1249L37.9193 12.503C38.0903 12.0805 38.1728 11.6099 38.142 11.116C38.0474 9.59859 36.8644 8.36684 35.4 8.26074C34.9739 8.22986 34.5655 8.29306 34.1919 8.43163C34.0384 8.48859 33.9973 8.69427 34.1126 8.81371L35.7505 10.5086L34.4301 11.8773L32.7816 10.1714C32.667 10.0529 32.4701 10.0942 32.4136 10.2514C32.2731 10.6422 32.2072 11.0704 32.2346 11.5181C32.3289 13.0518 33.5345 14.2921 35.0159 14.3796C35.4964 14.4081 35.9534 14.317 36.3628 14.1335L42.8225 20.8196C42.726 21.156 42.6912 21.52 42.736 21.8984C42.8848 23.1553 43.9014 24.1363 45.1222 24.2032C46.6453 24.2869 47.8958 22.9821 47.7998 21.4013C47.7229 20.1413 46.7725 19.1007 45.5615 18.955ZM45.6982 22.7809L44.4689 22.569L44.0313 21.3604L44.823 20.3635L46.0524 20.5754L46.49 21.7839L45.6982 22.7809Z" fill="#E63A27"/>
<path d="M46.7828 8.05054L45.2172 9.26678L44.679 10.483L40.6182 14.7905L41.1075 15.3987L45.2172 11.0911L46.3914 10.3817L47.5656 8.9121L46.7828 8.05054Z" fill="#E63A27"/>
<path d="M36.8605 16.9325C36.9924 17.1239 36.9567 17.3885 36.7793 17.5351L32.7057 20.9016C32.5573 21.0242 32.4487 21.1902 32.392 21.3779C32.2294 21.9161 32.0019 23.0304 32.6924 23.5575C33.2609 23.9913 33.884 24.0272 34.2825 23.9897C34.527 23.9666 34.753 23.8468 34.9137 23.6544L38.459 19.4069C38.6211 19.2127 38.9084 19.2018 39.0836 19.3834C39.1739 19.4769 39.3207 19.4748 39.4083 19.3787L39.6838 19.0764C39.9067 18.8319 39.9083 18.4503 39.6873 18.2037L37.923 16.2356C37.7044 15.9918 37.3417 15.9627 37.0895 16.169L36.9495 16.2835C36.7575 16.4407 36.7183 16.7263 36.8605 16.9325Z" fill="#E63A27"/>
<path d="M19.5344 0C12.9862 0 7.67773 5.49854 7.67773 12.2812V22.0021L12.1522 18.9426V12.2812C12.1522 8.06467 15.464 4.63451 19.5344 4.63451H51.5252V37.7707C51.5252 41.9872 48.2135 45.4172 44.1429 45.4172H38.9008V50.0518H44.1429C50.6912 50.0518 55.9995 44.5533 55.9995 37.7707V0H19.5344Z" fill="#E63A27"/>
<path d="M18.6971 17.0066L0 29.7912H7.36473V49.4872H29.866V29.5726H36.8385L18.6971 17.0066ZM18.0269 37.4449V41.4841H17.4062H13.9177V37.4449V37.2276H17.4062H18.0269V37.4449ZM18.0269 35.3075V35.5249H17.4062H13.9177V35.3075V31.2683H17.4062H18.0269V35.3075ZM23.3693 37.4449V41.4841H19.8805H19.2599V37.4449V37.2276H19.8805H23.3693V37.4449ZM23.3693 35.3075V35.5249H19.8805H19.2599V35.3075V31.2683H19.8805H23.3693V35.3075Z" fill="#141422"/>
<path d="M31.4248 54.0173C33.5441 51.468 31.7667 49.981 31.7667 49.981V45.449C33.2707 38.7926 38.2614 39.1466 38.2614 39.1466C32.7921 42.8288 35.7319 45.5197 35.7319 45.5197V45.5906H38.1247V50.0518H35.7319C33.4074 52.0345 35.9369 54.0173 35.9369 54.0173V56.0001H31.4248V54.0173Z" fill="#E63A27"/>
</svg>
