<svg width="65" height="65" viewBox="0 0 65 65" fill="none" xmlns="http://www.w3.org/2000/svg">
<path d="M33.4115 45.9572C35.0548 45.9572 35.0548 47.633 36.6981 47.633C38.3414 47.633 38.3411 45.9572 39.9844 45.9572C41.6277 45.9572 41.6279 47.633 43.2712 47.633C44.9145 47.633 44.9147 45.9572 46.558 45.9572C48.2013 45.9572 48.2016 47.633 49.8448 47.633C51.4881 47.633 51.4884 45.9572 53.1319 45.9572C54.7754 45.9572 54.7754 47.633 56.4192 47.633C58.063 47.633 57.9234 45.9572 59.5669 45.9572L45.256 26.707H19.2098L19.8138 46.0923M49.4934 50.4701L49.1527 50.5283C47.5632 50.5283 47.5632 51.6455 45.9745 51.646C45.3169 51.646 44.9132 51.4053 44.4018 51.1001C43.922 50.8131 43.113 50.367 42.5326 50.4661C40.9431 50.4661 40.9431 51.5837 39.3537 51.5837C38.2751 51.5837 37.2468 50.7294 36.2771 50.4026C37.6693 52.1908 42.2444 58.7068 42.4079 58.7152C43.8379 58.7881 43.8923 59.8283 45.4253 59.8286C46.1177 59.8286 46.5222 59.5607 47.0567 59.2405C47.4466 58.9818 47.8917 58.8177 48.3563 58.7615C48.8209 58.7053 49.2922 58.7585 49.7326 58.9168C50.5868 59.2355 51.0174 59.8905 52.0457 59.8908C53.6351 59.8908 53.6352 58.7729 55.2246 58.7729L55.5732 58.7134L49.4934 50.4701Z" fill="#DA4038"/>
<path d="M52.9481 40.2212C53.3071 39.9176 53.7641 39.7546 54.2342 39.7626H54.7928V39.5351L54.1331 38.6477C53.4698 38.6612 52.8293 38.892 52.3098 39.3046C51.9468 39.6012 51.4925 39.7632 51.0238 39.7632C50.555 39.7632 50.1007 39.6012 49.7377 39.3046C49.3266 38.9822 48.8411 38.7683 48.3258 38.6825L45.0783 34.2569C45.3515 34.3588 45.6411 34.4094 45.9327 34.4062C46.9737 34.4062 47.5102 33.8461 47.9414 33.3962C48.3115 33.0097 48.5792 32.7305 49.1433 32.7305H49.7019V32.6873L48.9115 31.6242C48.0208 31.7004 47.5323 32.2082 47.1347 32.6236C46.7645 33.01 46.4969 33.289 45.9327 33.289C45.3685 33.289 45.1009 33.0097 44.7307 32.6236C44.3661 32.2427 43.9246 31.7841 43.1666 31.6519L39.5383 26.707H38.1525L41.8636 31.7646C41.4193 31.9586 41.0258 32.2526 40.7137 32.6236C40.3435 33.01 40.0761 33.289 39.5122 33.289C38.9482 33.289 38.6806 33.0097 38.3104 32.6236C37.9829 32.2308 37.5621 31.9265 37.0866 31.7384L33.3948 26.707H32.009L35.6678 31.6932C35.1289 31.863 34.6514 32.1863 34.2936 32.6236C33.9234 33.01 33.6561 33.289 33.0919 33.289C32.5277 33.289 32.2606 33.0097 31.8904 32.6236C31.5182 32.1637 31.0115 31.8317 30.4414 31.6739L26.8016 26.707H25.4168L29.1023 31.7369C28.6248 31.9246 28.2023 32.2295 27.8739 32.6236C27.5037 33.01 27.2366 33.289 26.6724 33.289C26.1082 33.289 25.8414 33.0097 25.4714 32.6236C25.0403 32.1734 24.504 31.6133 23.463 31.6133H22.9044V32.7305H23.463C24.0267 32.7305 24.294 33.0097 24.664 33.3962C25.0951 33.8461 25.6314 34.4062 26.6724 34.4062C27.7134 34.4062 28.2497 33.8461 28.6808 33.3962C29.039 33.0217 29.3036 32.7503 29.8325 32.7335L34.2251 38.7282C33.7981 38.8391 33.398 39.0351 33.0487 39.3046C32.686 39.6011 32.2319 39.7631 31.7633 39.7631C31.2948 39.7631 30.8407 39.6011 30.4779 39.3046C29.9319 38.8694 29.2521 38.6365 28.5538 38.6454H27.9952V39.7626H28.5538C29.0238 39.7546 29.4806 39.9176 29.8394 40.2212C30.3897 40.6484 31.0666 40.8803 31.7633 40.8803C32.46 40.8803 33.1369 40.6484 33.6873 40.2212C34.0461 39.9176 34.5029 39.7546 34.9728 39.7626L34.983 39.7629L39.5541 46.0009C39.6956 45.9712 39.8399 45.9567 39.9844 45.9574C40.4436 45.9479 40.8895 46.1122 41.2326 46.4175L41.2403 46.4119L37.0318 40.6686C37.3977 40.8148 37.789 40.8868 38.183 40.8803C38.8812 40.8893 39.561 40.6564 40.1071 40.2212C40.4659 39.9176 40.9229 39.7546 41.3929 39.7626C41.465 39.7626 41.5315 39.7659 41.5952 39.771L46.162 45.9943C46.2925 45.9693 46.4252 45.9569 46.5581 45.9574C47.0447 45.9488 47.5149 46.133 47.8662 46.4698L47.8857 46.4556L43.7047 40.7572C43.9965 40.8418 44.2992 40.8833 44.603 40.8803C45.3014 40.8894 45.9814 40.6565 46.5276 40.2212C46.8668 39.937 47.2925 39.7764 47.7349 39.7657L52.3842 46.1017C52.6208 46.0025 52.8754 45.9533 53.132 45.9572C53.3344 45.9554 53.536 45.9854 53.7291 46.0461L49.7408 40.6109C50.1425 40.7967 50.5812 40.8888 51.0238 40.8801C51.722 40.8891 52.4019 40.6563 52.9481 40.2212ZM39.4688 39.3046C39.1059 39.6012 38.6516 39.7633 38.183 39.7633C37.7143 39.7633 37.26 39.6012 36.8972 39.3046C36.5134 39.0059 36.0661 38.7993 35.5898 38.7008L32.3657 34.3006C32.601 34.3725 32.8459 34.4081 33.0919 34.4062C34.1329 34.4062 34.6692 33.8461 35.1003 33.3962C35.4705 33.0097 35.7379 32.7305 36.302 32.7305C36.3493 32.7305 36.3917 32.7353 36.4351 32.7391L40.8058 38.6955C40.3185 38.7905 39.8604 38.9991 39.4688 39.3043V39.3046ZM45.889 39.3046C45.5261 39.6012 45.0718 39.7632 44.6031 39.7632C44.1344 39.7632 43.6801 39.6012 43.3172 39.3046C42.9924 39.056 42.625 38.8688 42.233 38.7521L39.0084 34.3572C39.1742 34.3904 39.3429 34.4069 39.5119 34.4065C40.5529 34.4065 41.0892 33.8464 41.5203 33.3962C41.857 33.0445 42.1114 32.7843 42.5791 32.7398L46.9879 38.7478C46.5903 38.8637 46.2177 39.0524 45.889 39.3043V39.3046Z" fill="#AC1E22"/>
<path d="M45.7918 31.3956C52.6285 31.3956 58.1707 25.8533 58.1707 19.0166C58.1707 12.1799 52.6285 6.6377 45.7918 6.6377C38.9551 6.6377 33.4128 12.1799 33.4128 19.0166C33.4128 25.8533 38.9551 31.3956 45.7918 31.3956Z" fill="#D5DEE2"/>
<path d="M45.7748 20.6167L48.3039 19.1562L51.6657 24.9783L49.1362 26.4388L45.7748 20.6167Z" fill="#7E8C8E"/>
<path d="M49.5491 20.1501L48.486 17.1494L43.9476 19.7697L46.0144 22.1907L49.5491 20.1501Z" fill="#657172"/>
<path d="M44.3777 14.9592L39.7313 17.6417L41.7719 21.1766L48.927 17.0455C49.6258 16.642 50.4017 16.3899 51.2042 16.3056C52.0067 16.2214 52.818 16.3067 53.5854 16.5562L54.8537 16.9686L54.2428 15.9106C53.4794 14.5884 52.2221 13.6236 50.7474 13.2284C49.2727 12.8332 47.7015 13.0401 46.3793 13.8034L44.3777 14.9592Z" fill="#7E8C8E"/>
<path d="M36.7288 18.4771L39.8976 16.6475L42.7154 21.5275L39.5467 23.3572L36.7288 18.4771Z" fill="#657172"/>
<path d="M47.5599 25.4505L51.5978 23.1191L54.534 28.2044L50.4961 30.5357L47.5599 25.4505Z" fill="#88472B"/>
<path d="M45.7917 32.7921C43.0672 32.7921 40.4039 31.9842 38.1385 30.4705C35.8732 28.9568 34.1075 26.8054 33.0649 24.2883C32.0223 21.7711 31.7495 19.0014 32.281 16.3292C32.8125 13.657 34.1245 11.2025 36.051 9.27595C37.9776 7.34942 40.4321 6.03744 43.1043 5.50591C45.7765 4.97438 48.5462 5.24718 51.0634 6.28981C53.5805 7.33244 55.7319 9.09807 57.2456 11.3634C58.7592 13.6288 59.5672 16.2921 59.5672 19.0166C59.563 22.6689 58.1103 26.1703 55.5277 28.7527C52.9452 31.3352 49.4437 32.7878 45.7915 32.7918L45.7917 32.7921ZM45.7917 8.03419C43.6196 8.03419 41.4963 8.6783 39.6902 9.88506C37.8841 11.0918 36.4765 12.8071 35.6453 14.8138C34.814 16.8206 34.5965 19.0288 35.0203 21.1592C35.4441 23.2896 36.49 25.2465 38.026 26.7824C39.5619 28.3183 41.5188 29.3643 43.6492 29.7881C45.7796 30.2118 47.9878 29.9944 49.9945 29.1631C52.0013 28.3319 53.7165 26.9242 54.9233 25.1182C56.1301 23.3121 56.7742 21.1888 56.7742 19.0166C56.7709 16.1049 55.6127 13.3133 53.5538 11.2544C51.4948 9.19552 48.7035 8.03741 45.7917 8.03419Z" fill="#2184CE"/>
<path d="M28.9893 46.0923H4.80621L19.2098 26.707L33.6134 46.0923H7.13022" fill="#7E8C8E"/>
<path d="M28.9892 46.0922H29.7939L19.2098 31.9141L8.71228 46.0922H28.9892Z" fill="#88472B"/>
</svg>
