<svg width="65" height="65" viewBox="0 0 65 65" fill="none" xmlns="http://www.w3.org/2000/svg">
<path fill-rule="evenodd" clip-rule="evenodd" d="M32.5 38.0947L60.8868 49.352L32.5 60.6093L4.01819 49.352L32.5 38.0947Z" fill="#FDCD56"/>
<path fill-rule="evenodd" clip-rule="evenodd" d="M32.5 44.3807L4.01819 32.4267L32.5 21.8662L60.8868 32.3603L32.5 44.3807ZM32.5 44.3807L60.4247 33.1234V40.634L32.5 51.8912L4.5754 40.634V33.1234L32.5 44.3807Z" fill="#A4D4FF"/>
<path fill-rule="evenodd" clip-rule="evenodd" d="M32.5001 14.0234L60.4247 25.2808L32.5001 36.538L4.57544 25.2808L32.5001 14.0234Z" fill="#FDCD56"/>
<path fill-rule="evenodd" clip-rule="evenodd" d="M11.9154 28.7561L4.24185 25.6626C4.07689 25.5961 3.93558 25.4817 3.83608 25.3343C3.73658 25.1868 3.68341 25.013 3.68341 24.8351C3.68341 24.6573 3.73658 24.4834 3.83608 24.336C3.93558 24.1886 4.07689 24.0742 4.24185 24.0077L17.9154 18.4954V11.4411L12.3784 14.3688C12.1693 14.4793 11.9248 14.5022 11.6987 14.4325C11.4726 14.3628 11.2834 14.2062 11.1728 13.9972C11.0623 13.788 11.0393 13.5435 11.109 13.3174C11.1787 13.0913 11.3353 12.9022 11.5444 12.7915L18.3906 9.17161C18.518 9.10406 18.6606 9.06812 18.8076 9.06812C18.9545 9.06812 19.0971 9.10406 19.2246 9.17161L26.0709 12.7915C26.28 12.9022 26.4366 13.0913 26.5063 13.3174C26.5759 13.5435 26.553 13.788 26.4425 13.9972C26.3319 14.2062 26.1427 14.3628 25.9166 14.4325C25.6905 14.5022 25.446 14.4793 25.2368 14.3688L19.6997 11.4411V17.7761L31.6079 12.9756V6.31747L26.0709 9.24502C25.8617 9.35555 25.6172 9.37849 25.391 9.3088C25.1649 9.23911 24.9757 9.0825 24.8651 8.87337C24.7546 8.66416 24.7317 8.41967 24.8015 8.1936C24.8712 7.96753 25.0278 7.77837 25.2368 7.66769L32.083 4.04783C32.2105 3.98028 32.3531 3.94434 32.5 3.94434C32.647 3.94434 32.7896 3.98028 32.917 4.04783L39.7632 7.66769C39.9723 7.77837 40.1289 7.96753 40.1986 8.1936C40.2683 8.41967 40.2454 8.66416 40.135 8.87337C40.0243 9.0825 39.8351 9.23911 39.609 9.3088C39.3829 9.37849 39.1384 9.35555 38.9292 9.24502L33.3922 6.31747V12.9756L45.3003 17.7761V11.4411L39.7632 14.3688C39.554 14.4793 39.3095 14.5022 39.0834 14.4325C38.8574 14.3628 38.6682 14.2062 38.5575 13.9972C38.447 13.788 38.4241 13.5435 38.4938 13.3174C38.5635 13.0913 38.7201 12.9022 38.9292 12.7915L45.7754 9.17161C45.9029 9.10406 46.0455 9.06812 46.1925 9.06812C46.3394 9.06812 46.482 9.10406 46.6095 9.17161L53.4556 12.7915C53.6647 12.9022 53.8213 13.0913 53.891 13.3174C53.9607 13.5435 53.9378 13.788 53.8273 13.9972C53.7166 14.2062 53.5274 14.3628 53.3014 14.4325C53.0753 14.5022 52.8308 14.4793 52.6216 14.3688L47.0846 11.4411V18.4954L60.7582 24.0077C60.9231 24.0743 61.0644 24.1886 61.1638 24.3361C61.2633 24.4835 61.3164 24.6573 61.3164 24.8351C61.3164 25.013 61.2633 25.1868 61.1638 25.3342C61.0644 25.4817 60.9231 25.596 60.7582 25.6626L53.0846 28.7561L60.7582 31.8495C60.9232 31.916 61.0646 32.0303 61.1641 32.1778C61.2637 32.3252 61.3168 32.4991 61.3168 32.677V40.1876C61.3168 40.3655 61.2636 40.5393 61.1641 40.6867C61.0645 40.8341 60.9232 40.9485 60.7582 41.015L51.9977 44.5465L60.7582 48.0782C60.9232 48.1447 61.0645 48.2591 61.164 48.4065C61.2635 48.554 61.3166 48.7278 61.3166 48.9057C61.3166 49.0835 61.2635 49.2574 61.164 49.4048C61.0645 49.5522 60.9232 49.6666 60.7582 49.7331L32.8336 60.9904C32.6196 61.0767 32.3805 61.0767 32.1665 60.9904L4.24185 49.7331C4.07694 49.6665 3.93569 49.5522 3.83623 49.4047C3.73676 49.2573 3.68362 49.0835 3.68362 48.9057C3.68362 48.7278 3.73676 48.554 3.83623 48.4066C3.93569 48.2591 4.07694 48.1448 4.24185 48.0782L13.0023 44.5465L4.24185 41.015C4.07686 40.9485 3.93553 40.8341 3.83599 40.6867C3.73645 40.5393 3.68325 40.3655 3.68323 40.1876V32.677C3.68321 32.4991 3.73639 32.3252 3.83593 32.1778C3.93547 32.0303 4.07683 31.916 4.24185 31.8495L11.9154 28.7561ZM17.9154 20.4193L6.96152 24.8352L32.5 35.1304L58.0385 24.8352L47.0846 20.4193V21.7532C47.0846 22.2457 46.6848 22.6453 46.1925 22.6453C45.7 22.6453 45.3003 22.2457 45.3003 21.7532V19.7L35.1217 15.5967L33.3922 14.8995V22.3192C33.3922 22.8117 32.9924 23.2114 32.5 23.2114C32.0077 23.2114 31.6079 22.8117 31.6079 22.3192V14.8995L29.8784 15.5967L19.6997 19.7V21.7532C19.6997 22.2457 19.3 22.6453 18.8076 22.6453C18.3152 22.6453 17.9154 22.2457 17.9154 21.7532V20.4193ZM50.6985 29.718L32.8336 36.9199C32.6196 37.0061 32.3805 37.0061 32.1665 36.9199L14.3015 29.718L6.96152 32.677L32.5 42.9724L58.0385 32.677L50.6985 29.718ZM59.5325 33.9986L57.2883 34.9032L57.2418 40.5086C58.0054 40.2008 58.7689 39.893 59.5325 39.5852V33.9986ZM55.498 35.625L52.5084 36.8301L52.4619 42.4355L55.4514 41.2304L55.498 35.625ZM50.7181 37.5519L47.7289 38.7569L47.6824 44.3624L50.6715 43.1573L50.7181 37.5519ZM45.9385 39.4787L42.9482 40.6842L42.9016 46.2897L45.8919 45.0841L45.9385 39.4787ZM41.1578 41.406L38.1667 42.6117L38.1202 48.2172L41.1112 47.0114L41.1578 41.406ZM36.3763 43.3334L33.3922 44.5364V50.1231L36.3298 48.939L36.3763 43.3334ZM49.6116 45.5085L32.8336 52.2722C32.6196 52.3585 32.3805 52.3585 32.1665 52.2722L15.3885 45.5085L6.96152 48.9056L32.5 59.201L58.0385 48.9056L49.6116 45.5085ZM5.46754 33.9986V39.5852L8.20697 40.6896L8.25324 35.1215L5.46754 33.9986ZM9.9853 41.4065L12.9925 42.6188L13.0388 37.0507L10.0316 35.8384L9.9853 41.4065ZM31.6079 44.5364L29.153 43.5469L29.1068 49.115L31.6079 50.1231V44.5364ZM27.3746 42.83L24.3754 41.6209L24.3291 47.1888L27.3284 48.398L27.3746 42.83ZM22.597 40.904L19.5968 39.6945L19.5505 45.2625L22.5507 46.4719L22.597 40.904ZM17.8183 38.9775L14.8172 37.7677L14.771 43.3357L17.772 44.5455L17.8183 38.9775Z" fill="black"/>
</svg>
