<svg width="45" height="45" viewBox="0 0 45 45" fill="none" xmlns="http://www.w3.org/2000/svg">
<path d="M35.0967 17.8427C34.5101 13.401 29.9011 8.65635 26.2978 8.5554C26.0464 8.5554 25.795 8.45445 25.6274 8.25255C25.4598 8.1516 25.2922 8.05065 25.2084 7.7478C23.9514 4.92123 24.6218 2.70034 26.7168 0.883255C29.147 -1.23668 33.0017 0.883255 34.9291 2.80129C39.7894 7.64685 44.7336 16.0255 44.4822 24.0006C45.3202 29.3511 45.1526 35.105 43.8956 39.8497C43.0576 42.8781 40.6274 44.3924 38.1134 44.5943C35.5995 44.7963 30.4039 45.7047 28.1414 43.8878C25.8788 42.0705 25.7112 38.5373 25.4598 35.509C25.2084 32.1777 24.4542 25.9187 26.8006 23.294C29.147 20.7703 35.8509 23.4959 35.0967 17.8427Z" fill="#E63A27"/>
<path d="M10.5225 17.8427C9.93586 13.401 5.32706 8.65635 1.72356 8.5554C1.47217 8.5554 1.22077 8.45445 1.05317 8.25255C0.885439 8.1516 0.717978 8.05065 0.634041 7.7478C-0.622942 4.92123 0.0474472 2.70034 2.14242 0.883255C4.57259 -1.23668 8.42734 0.883255 10.3549 2.80129C15.2152 7.64685 20.1593 16.0256 19.9079 24.0006C20.7459 29.3511 20.5783 35.105 19.3215 39.8497C18.4835 42.8781 16.0533 44.3924 13.5392 44.5943C11.0252 44.7963 5.82971 45.7047 3.56714 43.8878C1.30471 42.0705 1.13697 38.5373 0.885576 35.509C0.63418 32.1777 -0.120012 25.9187 2.22636 23.294C4.57273 20.7703 11.3604 23.4959 10.5225 17.8427Z" fill="#E63A27"/>
</svg>
