<svg width="60" height="61" viewBox="0 0 60 61" fill="none" xmlns="http://www.w3.org/2000/svg">
<g clip-path="url(#clip0_3256_7067)">
<path d="M53.0481 32.2275C52.5292 32.2275 52.1086 32.6481 52.1086 33.167V58.2818H24.9897C24.4708 58.2818 24.0502 58.7024 24.0502 59.2213C24.0502 59.7402 24.4706 60.1608 24.9897 60.1608H53.0481C53.567 60.1608 53.9876 59.7402 53.9876 59.2213V33.1669C53.9876 32.6481 53.5669 32.2275 53.0481 32.2275Z" fill="#E63A27"/>
<path d="M59.6284 22.398L30.5679 0.352148C30.2322 0.0975 29.7679 0.0975 29.4322 0.352148L17.9124 9.09129V6.04852H18.9771C19.496 6.04852 19.9166 5.62793 19.9166 5.10902V1.10062C19.9166 0.581836 19.4961 0.161133 18.9771 0.161133H4.94802C4.42911 0.161133 4.00853 0.581719 4.00853 1.10062V5.10902C4.00853 5.62781 4.429 6.04852 4.94802 6.04852H6.01279V18.1188L0.371731 22.398C0.0504027 22.6418 -0.0795582 23.0637 0.0492308 23.4459C0.177786 23.8283 0.536262 24.0859 0.939621 24.0859H6.01267V59.2215C6.01267 59.7403 6.43314 60.161 6.95216 60.161H18.9772C19.4961 60.161 19.9167 59.7404 19.9167 59.2215C19.9167 58.7026 19.4963 58.282 18.9772 58.282H7.89154V23.1464C7.89154 22.6276 7.47107 22.2069 6.95204 22.2069H3.73232L30.0001 2.27988L56.2678 22.2071H53.0481C52.5292 22.2071 52.1086 22.6277 52.1086 23.1466V28.1571C52.1086 28.6759 52.5291 29.0966 53.0481 29.0966C53.567 29.0966 53.9876 28.676 53.9876 28.1571V24.086H59.0606C59.4641 24.086 59.8225 23.8284 59.951 23.4461C60.0796 23.0637 59.9497 22.6419 59.6284 22.398ZM5.88739 4.16953V2.04012H18.0376V4.16953H5.88739ZM16.0336 10.5168L7.89165 16.6934V6.04852H16.0336V10.5168Z" fill="#E63A27"/>
<path d="M50.0307 47.8188L41.5115 37.7983C41.3502 37.6085 41.12 37.4906 40.8717 37.4704L38.0465 37.2417C38.0399 37.2412 38.0333 37.2414 38.0265 37.2411L36.1719 35.0596L40.3789 30.8525L41.1317 31.6053C41.4936 31.9671 42.0986 31.9671 42.4604 31.6053L45.2947 28.771C45.3491 28.7166 45.3964 28.6559 45.436 28.5901L47.5618 25.047C47.7836 24.6774 47.7253 24.2041 47.4205 23.8994L46.0034 22.4824C45.6986 22.1776 45.2254 22.1191 44.8558 22.341L41.3129 24.4668C41.247 24.5063 41.1861 24.5538 41.1318 24.6082L38.2974 27.4426C37.9358 27.8042 37.9358 28.4095 38.2974 28.7711L39.0502 29.5239L34.9508 33.6235L30.5093 28.3994L32.217 26.9476L40.1466 24.1368C40.7563 23.9207 40.968 23.1349 40.5477 22.6417L37.59 19.1736C36.127 17.4529 34.0818 16.4049 31.8306 16.2226C29.5788 16.0402 27.3922 16.7457 25.6717 18.2084L16.844 25.7136L16.704 25.5488C16.2165 24.9753 15.5347 24.6258 14.7843 24.5651C14.0354 24.5047 13.3049 24.7394 12.7312 25.2271L11.0135 26.6875C9.84325 27.6824 9.6963 29.4894 10.6918 30.6603L17.994 39.2492C18.9884 40.4194 20.7959 40.5663 21.9668 39.5709L23.6845 38.1105C24.2902 37.5956 24.6522 36.8396 24.6761 36.0451C24.6995 35.2708 24.3961 34.5963 23.9028 34.0161L26.024 32.2127L30.7741 37.8001L28.9811 39.593L28.2284 38.8403C28.0522 38.6641 27.8134 38.5652 27.5641 38.5652H24.7298C24.4807 38.5652 24.2418 38.6641 24.0655 38.8403L14.7656 48.1402C13.6792 49.2267 13.679 51.0396 14.7655 52.126L17.7768 55.1375C18.8633 56.2207 20.6768 56.2234 21.7627 55.1375L31.0629 45.8373C31.239 45.6611 31.3379 45.4222 31.3379 45.173V42.3387C31.3379 42.0896 31.239 41.8507 31.0629 41.6745L30.31 40.9217L31.9954 39.2363L33.9159 41.4952L33.7517 43.5236C33.7317 43.7721 33.8111 44.0182 33.9724 44.2079L42.4916 54.2283C43.485 55.3968 45.2952 55.5441 46.4642 54.55L49.709 51.7916C50.8793 50.7967 51.0263 48.9898 50.0307 47.8188ZM42.3788 26.0186L45.1937 24.3297L45.5734 24.7095L43.8846 27.5244L41.7963 29.6126L40.2906 28.1069L42.3788 26.0186ZM20.4343 53.8089C20.0676 54.1753 19.4718 54.175 19.1055 53.8089H19.1056L16.0942 50.7975C15.7322 50.4353 15.7323 49.8309 16.0943 49.4689L24.0214 41.5416L28.3615 45.8817L20.4343 53.8089ZM29.4594 44.3224L25.5811 40.4441H27.1754L28.317 41.5856C28.3172 41.5857 28.3173 41.5858 28.3173 41.5859C28.3173 41.586 28.3175 41.586 28.3176 41.5862L29.4594 42.7279V44.3224ZM31.6795 18.0953C33.4304 18.2371 35.0212 19.0522 36.1598 20.3916L38.2325 22.8221L32.037 25.0181L27.2326 19.3669C28.5124 18.4151 30.0753 17.9653 31.6795 18.0953ZM22.7958 36.0389C22.7755 36.2891 22.659 36.5163 22.468 36.6787C22.468 36.6787 22.468 36.6787 22.4679 36.6787L20.75 38.1391C20.3598 38.4708 19.7572 38.4216 19.4259 38.0319L12.1237 29.443C11.7918 29.0526 11.8409 28.4503 12.2309 28.1187L13.9488 26.6583C14.3392 26.3264 14.9414 26.3757 15.2729 26.7656L22.5751 35.3545C22.7376 35.5456 22.8159 35.7888 22.7958 36.0389ZM22.6862 32.5845L18.0614 27.1448L25.7913 20.5729L30.4161 26.0126L22.6862 32.5845ZM27.4559 30.9956L29.0782 29.6163L36.4257 38.2585L34.8034 39.6379L27.4559 30.9956ZM48.4923 50.3599C48.4923 50.3599 48.4923 50.3599 48.4922 50.3599L45.2474 53.1185C44.8571 53.4502 44.2548 53.4014 43.9233 53.0112L35.6561 43.2873L35.822 41.2379L38.2828 39.1456L40.332 39.3116L48.5993 49.0357C48.9313 49.4259 48.8822 50.0283 48.4923 50.3599Z" fill="#E63A27"/>
</g>
<defs>
<clipPath id="clip0_3256_7067">
<rect width="60" height="60" fill="white" transform="translate(0 0.161133)"/>
</clipPath>
</defs>
</svg>
