<svg width="70" height="70" viewBox="0 0 70 70" fill="none" xmlns="http://www.w3.org/2000/svg">
<path d="M7.65625 38.2812H67.8125V63.4375H7.65625V38.2812Z" fill="#95AFD1"/>
<path d="M48.125 42.6562H67.8125V63.4375H48.125V42.6562Z" fill="#C1CFE8"/>
<path d="M16.3373 17.5L21.875 7.65625H67.8125V42.6562H2.1875L12.6459 24.0625L16.3373 17.5Z" fill="#828A93"/>
<path d="M48.125 42.6562L67.8125 7.65625V42.6562H48.125Z" fill="#585E68"/>
<path d="M47.0312 7.65625L34.7266 29.5312L53.5916 32.9383L67.8125 7.65625H47.0312Z" fill="#F9CB5D"/>
<path d="M33.8565 21.3577L41.563 7.65625H21.8755L16.3379 17.5L33.8565 21.3577Z" fill="#F9CB5D"/>
<path d="M50.3125 29.5312H31.7188C30.8485 29.5313 30.0139 29.877 29.3986 30.4923C28.7832 31.1077 28.4375 31.9423 28.4375 32.8125C28.4375 33.6827 28.7832 34.5173 29.3986 35.1327C30.0139 35.748 30.8485 36.0938 31.7188 36.0938H50.3125V29.5312Z" fill="#F79B31"/>
<path d="M30.625 17.5H12.0312C11.161 17.5 10.3264 17.8457 9.71106 18.4611C9.0957 19.0764 8.75 19.911 8.75 20.7812C8.75 21.6515 9.0957 22.4861 9.71106 23.1014C10.3264 23.7168 11.161 24.0625 12.0312 24.0625H30.625V17.5Z" fill="#F79B31"/>
<path d="M30.625 24.0625C32.4372 24.0625 33.9062 22.5934 33.9062 20.7812C33.9062 18.9691 32.4372 17.5 30.625 17.5C28.8128 17.5 27.3438 18.9691 27.3438 20.7812C27.3438 22.5934 28.8128 24.0625 30.625 24.0625Z" fill="#EC8329"/>
<path d="M53.6627 42.6562L67.8125 17.5V7.65625L48.125 42.6562H53.6627Z" fill="#3C4047"/>
<path d="M50.3125 36.0938C52.1247 36.0938 53.5938 34.6247 53.5938 32.8125C53.5938 31.0003 52.1247 29.5312 50.3125 29.5312C48.5003 29.5312 47.0312 31.0003 47.0312 32.8125C47.0312 34.6247 48.5003 36.0938 50.3125 36.0938Z" fill="#EC8329"/>
<path d="M41.6748 24.629L45.9789 16.9782L47.8833 18.0496L43.5792 25.7004L41.6748 24.629Z" fill="#FFEACD"/>
<path d="M53.7031 18.8043L56.5725 13.7038L58.4769 14.7751L55.6075 19.8757L53.7031 18.8043Z" fill="#FFEACD"/>
<path d="M26.4414 13.6897L28.5594 9.9248L30.4638 10.9961L28.3458 14.761L26.4414 13.6897Z" fill="#FFEACD"/>
<path d="M19.1975 45.9375H48.125V63.4375H12.0312V53.1037C12.0312 51.2031 12.7863 49.3804 14.1302 48.0364C15.4741 46.6925 17.2969 45.9375 19.1975 45.9375Z" fill="#A5BADB"/>
<path d="M67.8125 63.4375V45.9375H59.4092C58.3583 45.9375 57.3176 46.1445 56.3466 46.5467C55.3757 46.9489 54.4934 47.5384 53.7503 48.2815C53.0071 49.0247 52.4176 49.9069 52.0154 50.8779C51.6133 51.8488 51.4062 52.8895 51.4062 53.9405V63.4375H67.8125Z" fill="#D7E0EF"/>
<path d="M67.8127 6.5625H21.8752C21.6812 6.56264 21.4907 6.61437 21.3233 6.7124C21.1559 6.81042 21.0176 6.9512 20.9225 7.12031L15.6988 16.4062H12.0314C10.9733 16.4038 9.95022 16.7858 9.15273 17.4814C8.35524 18.1769 7.83764 19.1385 7.69625 20.1872C7.55486 21.2359 7.79933 22.3002 8.38414 23.1821C8.96896 24.064 9.85429 24.7034 10.8753 24.9813L1.23503 42.1203C1.14151 42.2867 1.09315 42.4746 1.09477 42.6655C1.09638 42.8563 1.1479 43.0435 1.24422 43.2082C1.34054 43.373 1.4783 43.5097 1.64382 43.6047C1.80933 43.6998 1.99683 43.7499 2.18769 43.75H6.56269V63.4375H8.75019V43.75H47.0314V63.4375H49.2189V43.75H66.7189V63.4375H68.9064V7.65625C68.9064 7.36617 68.7912 7.08797 68.5861 6.88285C68.381 6.67773 68.1028 6.5625 67.8127 6.5625ZM66.7189 17.2145L53.023 41.5625H49.9944L52.9803 36.2545C53.4394 35.8993 53.8226 35.4555 54.1072 34.9496C54.3918 34.4437 54.5721 33.8859 54.6374 33.3091L66.7189 11.8311V17.2145ZM48.1252 32.8125C48.1252 32.3799 48.2535 31.9569 48.4938 31.5972C48.7342 31.2375 49.0759 30.9571 49.4756 30.7915C49.8753 30.6259 50.3151 30.5826 50.7394 30.667C51.1638 30.7514 51.5536 30.9598 51.8595 31.2657C52.1654 31.5716 52.3738 31.9614 52.4582 32.3857C52.5426 32.8101 52.4992 33.2499 52.3337 33.6496C52.1681 34.0493 51.8877 34.391 51.528 34.6313C51.1683 34.8717 50.7453 35 50.3127 35C49.7325 35 49.1761 34.7695 48.7659 34.3593C48.3557 33.9491 48.1252 33.3927 48.1252 32.8125ZM53.8466 30.2553C53.4436 29.6941 52.913 29.2367 52.2986 28.9207C51.6842 28.6047 51.0036 28.439 50.3127 28.4375H36.596L47.6702 8.75H65.9435L53.8466 30.2553ZM46.5458 30.625C46.1479 31.2853 45.9377 32.0416 45.9377 32.8125C45.9377 33.5834 46.1479 34.3397 46.5458 35H31.7189C31.1388 35 30.5824 34.7695 30.1721 34.3593C29.7619 33.9491 29.5314 33.3927 29.5314 32.8125C29.5314 32.2323 29.7619 31.6759 30.1721 31.2657C30.5824 30.8555 31.1388 30.625 31.7189 30.625H46.5458ZM22.515 8.75H39.6935L34.2761 18.3805C33.8786 17.7749 33.3369 17.2774 32.6997 16.9329C32.0624 16.5883 31.3496 16.4073 30.6252 16.4062H18.2078L22.515 8.75ZM28.4377 20.7812C28.4377 20.3486 28.566 19.9257 28.8063 19.5659C29.0467 19.2062 29.3884 18.9258 29.7881 18.7603C30.1878 18.5947 30.6276 18.5514 31.0519 18.6358C31.4763 18.7202 31.8661 18.9285 32.172 19.2345C32.4779 19.5404 32.6862 19.9302 32.7707 20.3545C32.8551 20.7788 32.8117 21.2187 32.6462 21.6184C32.4806 22.0181 32.2002 22.3597 31.8405 22.6001C31.4808 22.8405 31.0578 22.9688 30.6252 22.9688C30.045 22.9688 29.4886 22.7383 29.0784 22.328C28.6682 21.9178 28.4377 21.3614 28.4377 20.7812ZM9.84394 20.7812C9.84394 20.2011 10.0744 19.6447 10.4846 19.2345C10.8949 18.8242 11.4513 18.5938 12.0314 18.5938H26.8583C26.4604 19.254 26.2502 20.0103 26.2502 20.7812C26.2502 21.5522 26.4604 22.3085 26.8583 22.9688H12.0314C11.4513 22.9688 10.8949 22.7383 10.4846 22.328C10.0744 21.9178 9.84394 21.3614 9.84394 20.7812ZM13.286 25.1562H30.6252C31.6114 25.1541 32.568 24.8188 33.3397 24.2047C34.1114 23.5906 34.653 22.7338 34.8766 21.7733L42.2025 8.75H45.1622L34.088 28.4375H31.7189C30.5586 28.4375 29.4458 28.8984 28.6253 29.7189C27.8049 30.5394 27.3439 31.6522 27.3439 32.8125C27.3439 33.9728 27.8049 35.0856 28.6253 35.9061C29.4458 36.7266 30.5586 37.1875 31.7189 37.1875H49.9474L47.4864 41.5625H4.058L13.286 25.1562ZM55.5321 41.5625L66.7189 21.6748V41.5625H55.5321Z" fill="black"/>
<path d="M41.6748 24.629L45.9789 16.9782L47.8833 18.0496L43.5792 25.7004L41.6748 24.629Z" fill="black"/>
<path d="M53.7266 18.7599L56.596 13.6535L58.5025 14.7248L55.6331 19.8312L53.7266 18.7599Z" fill="black"/>
<path d="M26.4414 13.6897L28.5594 9.9248L30.4638 10.9961L28.3458 14.761L26.4414 13.6897Z" fill="black"/>
</svg>
