<svg width="150" height="70" viewBox="0 0 150 70" fill="none" xmlns="http://www.w3.org/2000/svg">
<path d="M80.4457 65.636H0L40.2324 2.19818L80.4457 65.636Z" fill="#AF2E38"/>
<path d="M84.9076 65.636H4.46191L44.6752 2.19818L84.9076 65.636Z" fill="#EFD6CA"/>
<path d="M91.5707 65.636H11.125L51.3574 2.19818L91.5707 65.636Z" fill="#FFEEE4"/>
<path d="M145.514 65.8256L80.4457 65.6362L40.2324 2.19836L109.055 1.93317L145.514 65.8256Z" fill="#CD4248"/>
<path d="M81.1915 13.1658H59.1891L56.5273 7.5968H78.5298L81.1915 13.1658Z" fill="#AF2E38"/>
<path d="M105.858 13.1658H83.8561L81.1943 7.5968H103.178L105.858 13.1658Z" fill="#AF2E38"/>
<path d="M119.202 54.9525H97.1998L94.5381 49.3834H116.54L119.202 54.9525Z" fill="#AF2E38"/>
<path d="M135.25 61.9802H113.248L110.586 56.4112H132.569L135.25 61.9802Z" fill="#AF2E38"/>
<path d="M56.531 35.6314H33.3223V65.8255H56.531V35.6314Z" fill="#EFD6CA"/>
<path d="M53.7503 38.5106H36.0947V65.8254H53.7503V38.5106Z" fill="#444A5B"/>
<path d="M45.9401 36.7681H43.5273V65.8256H45.9401V36.7681Z" fill="#EFD6CA"/>
<path d="M127.476 47.8492L86.4965 48.1713L66.6006 17.4847L106.393 16.9922L127.476 47.8492Z" fill="#AF2E38"/>
<path d="M121.771 44.7238L88.4705 44.9891L72.3086 20.0609L104.632 19.6631L121.771 44.7238Z" fill="#EFD6CA"/>
<path d="M104.281 46.4561L106.819 44.9716L90.896 18.3283L88.3575 19.8129L104.281 46.4561Z" fill="#AF2E38"/>
<path d="M115.234 33.6258L115.204 30.7089L78.5371 31.0826L78.5675 33.9994L115.234 33.6258Z" fill="#AF2E38"/>
<path d="M148.812 40.992L134.277 30.4601L134.545 28.3006L148.39 27.2209L148.812 40.992Z" fill="#75BFB1"/>
<path d="M134.672 65.5599C134.672 65.5599 134.117 66.2229 133.466 67.1321C132.815 68.0413 132.317 68.9884 133.236 69.4241C134.155 69.8598 135.266 68.799 135.63 68.1549C135.994 67.5299 136.396 67.5867 136.894 67.17C137.392 66.7532 137.124 65.2 137.124 65.2L134.672 65.5599Z" fill="#FEB801"/>
<path d="M144.289 35.5934C142.948 37.3361 138.487 65.4275 138.487 65.4275C137.146 66.583 135.136 65.4275 135.136 65.4275C133.68 51.1071 135.499 27.9407 135.499 27.9407C135.499 27.9407 145.629 37.3361 144.289 35.5934Z" fill="#75BFB1"/>
<path d="M148.06 66.0336C148.06 66.0336 148.616 66.6966 149.267 67.6059C149.918 68.5151 150.416 69.4622 149.496 69.8979C148.577 70.3335 147.467 69.2727 147.103 68.6287C146.739 68.0036 146.337 68.0605 145.839 67.6437C145.341 67.227 145.609 65.6737 145.609 65.6737L148.06 66.0336Z" fill="#FEB801"/>
<path d="M139.634 36.2564C140.974 37.9991 145.436 66.0905 145.436 66.0905C146.777 67.246 148.787 66.0905 148.787 66.0905C150.243 51.7701 148.519 28.187 148.519 28.187C148.519 28.187 138.293 37.9991 139.634 36.2564Z" fill="#75BFB1"/>
<path d="M135.461 20.3826C135.327 20.8561 134.676 25.9516 132.473 28.9634C131.765 29.9105 129.678 27.2965 129.678 27.2965C129.678 27.2965 131.114 24.8151 131.478 20.4773C131.784 16.8214 135.461 20.3826 135.461 20.3826Z" fill="#C1775D"/>
<path d="M133.332 27.1827C132.528 29.7589 127.319 35.9909 127.319 35.9909L126.477 34.1724L130.364 25.762C130.364 25.762 134.136 24.6066 133.332 27.1827Z" fill="#C1775D"/>
<path d="M126.151 34.4C125.96 34.4568 125.749 34.4379 125.539 34.4379C125.156 34.4568 124.792 34.5894 124.428 34.722C124.237 34.7978 123.72 34.722 123.643 34.9872C123.509 35.4229 124.39 35.3093 124.6 35.3471C124.773 35.385 124.964 35.5176 124.983 35.707C124.983 35.8206 124.926 35.9343 124.849 36.048C124.62 36.37 124.351 36.6352 124.102 36.9383C123.968 37.0898 123.854 37.2414 123.719 37.4118C123.624 37.5255 123.451 37.6581 123.394 37.7907C123.356 37.9043 123.394 38.0558 123.528 38.0748C123.643 38.0937 123.681 37.9801 123.758 37.9233C123.93 37.7717 124.083 37.6202 124.256 37.4876C124.294 37.4497 124.447 37.2793 124.505 37.2982C124.773 37.355 124.371 37.8096 124.313 37.8854C124.16 38.0748 124.026 38.2832 124.007 38.5294C124.007 38.5673 124.007 38.6052 124.026 38.6241C124.064 38.662 124.122 38.6241 124.16 38.6052C124.409 38.4157 124.581 38.1506 124.83 37.9801C124.868 37.9422 124.926 37.9233 124.964 37.9422C125.137 38.0369 124.945 38.3779 124.888 38.4915C124.849 38.5673 124.811 38.662 124.888 38.7189C124.926 38.7568 124.983 38.7567 125.041 38.7378C125.098 38.7188 125.137 38.681 125.175 38.6431C125.29 38.5294 125.405 38.4158 125.5 38.2832C125.539 38.2263 125.673 38.018 125.768 38.0748C125.788 38.0748 125.807 38.0937 125.807 38.1316C125.826 38.2074 125.807 38.2832 125.788 38.359C125.768 38.4347 125.768 38.5294 125.826 38.5673C125.902 38.6241 126.017 38.5673 126.075 38.5105C126.343 38.3021 126.515 37.9991 126.707 37.7149C126.898 37.4118 127.09 37.1088 127.262 36.8057C127.473 36.4079 127.664 36.0101 127.837 35.6123C127.971 35.2903 128.22 34.9682 128.296 34.6462C128.354 34.4 128.239 34.1537 128.066 33.9643C127.894 33.7938 127.683 33.6612 127.492 33.4908C127.377 33.3961 127.281 33.3013 127.147 33.3582C126.975 33.415 126.4 34.3053 126.324 34.3811C126.266 34.3621 126.209 34.3811 126.151 34.4Z" fill="#C1775D"/>
<path d="M132.777 15.3817C133.428 13.6201 134.711 12.1804 136.281 12.6729C137.162 12.9381 138.024 14.5672 138.043 15.7795C138.043 18.0904 137.602 21.5 135.304 24.7771C134.462 25.9704 130.67 25.6105 130.843 23.1101C131.072 19.8331 131.858 17.8631 132.777 15.3817Z" fill="#D3841C"/>
<path d="M133.418 15.7607C133.686 12.5026 138.129 11.385 141.901 11.1766C144.448 11.0441 146.191 12.4079 146.842 15.4008C147.263 17.3708 149.235 25.5917 148.546 28.1868C148.546 28.1868 144.391 30.7062 134.107 28.9635C134.107 28.9635 132.863 22.7315 133.418 15.7607Z" fill="#E79E30"/>
<path d="M140.823 7.27435C140.823 7.27435 137.3 8.84655 137.587 9.0928C137.855 9.33905 137.625 10.021 137.74 10.6082C137.874 11.2333 137.587 11.991 137.166 12.7487C136.859 13.2791 137.683 13.6579 138.334 13.6389C141.149 13.5632 142.642 12.1993 141.876 11.4606C140.153 9.79367 140.823 7.27435 140.823 7.27435Z" fill="#CC8B6E"/>
<path d="M137.718 10.6083C137.603 10.0211 137.832 9.33915 137.564 9.0929C137.296 8.84665 141.088 7.14185 141.088 7.14185C141.088 7.14185 140.609 7.8806 140.705 8.82771C139.747 10.0968 138.579 10.8735 137.679 11.4796C137.756 11.1955 137.775 10.8356 137.718 10.6083Z" fill="#C1775D"/>
<path d="M136.196 3.86541C134.99 5.26714 134.568 9.26396 136.464 10.7225C137.517 11.5181 140.313 9.83223 141.27 7.40762C141.405 7.0856 141.5 5.39972 140.37 3.84645C139.873 3.12664 137.46 2.40685 136.196 3.86541Z" fill="#CC8B6E"/>
<path d="M135.647 4.73615C136.011 4.81192 136.298 4.22471 136.739 4.35731C137.083 4.47096 137.218 4.77405 137.639 4.71722C138.213 4.64145 139.688 3.12607 139.764 6.64934C139.764 6.81982 139.956 6.97134 140.071 7.10394C140.281 7.36913 139.918 7.72903 140.166 7.95634C140.186 7.97528 140.301 7.95635 140.339 7.99423C140.415 8.05106 140.435 8.25944 140.454 8.33521C140.53 8.6004 140.626 8.88452 140.703 9.14972C141.086 9.07395 141.258 8.67615 141.43 8.31625C141.718 7.71009 142.101 7.12288 142.292 6.47884C142.484 5.8348 142.426 5.03922 141.909 4.58461C141.718 4.41413 141.469 4.30048 141.315 4.09212C141.124 3.84587 141.086 3.52384 141.009 3.22076C140.913 2.76614 140.703 2.31153 140.339 2.00845C139.879 1.62961 139.247 1.55384 138.654 1.53489C138.041 1.51595 137.792 1.72434 137.198 1.91376C136.605 2.10319 135.915 2.42518 135.609 2.95557C135.303 3.48595 135.015 4.0353 135.379 4.54674C135.417 4.60357 135.475 4.6604 135.532 4.69829C135.571 4.71723 135.609 4.71721 135.647 4.73615Z" fill="#242236"/>
<path d="M139.552 7.54C139.552 7.54 140.394 6.40343 141.026 6.53603C141.658 6.66863 141.18 8.41134 139.954 8.44922C138.728 8.48711 139.284 7.86202 139.552 7.54Z" fill="#CC8B6E"/>
<path d="M138.83 7.02829C138.849 7.00934 138.791 7.04722 138.791 7.04722C138.753 7.06616 138.696 7.10404 138.657 7.10404C138.466 7.16087 138.351 7.04721 138.274 6.89567C138.217 6.80096 138.064 6.89568 138.121 6.99039C138.293 7.33135 138.676 7.36925 138.964 7.123C139.059 7.06618 138.925 6.95252 138.83 7.02829Z" fill="#1E100C"/>
<path d="M136.89 6.76295C136.852 6.81978 136.795 6.85765 136.756 6.89553C136.584 7.00918 136.45 6.91449 136.354 6.76295C136.297 6.66824 136.144 6.76296 136.201 6.85767C136.335 7.04709 136.507 7.17968 136.756 7.08497C136.89 7.02814 136.986 6.93343 137.063 6.81977C137.101 6.744 136.948 6.66824 136.89 6.76295Z" fill="#1E100C"/>
<path d="M136.392 5.94865C136.66 5.835 136.928 5.92973 137.081 6.17598C137.158 6.28963 137.33 6.15702 137.253 6.04337C137.043 5.72135 136.679 5.58877 136.315 5.75925C136.181 5.81607 136.258 6.00548 136.392 5.94865Z" fill="#1E100C"/>
<path d="M138.216 6.30862C138.446 6.11919 138.714 6.13814 138.944 6.34651C139.039 6.44122 139.173 6.27075 139.078 6.17604C138.79 5.92979 138.407 5.89189 138.101 6.13814C137.967 6.21391 138.101 6.38439 138.216 6.30862Z" fill="#1E100C"/>
<path d="M137.505 6.47901C137.582 6.64949 137.62 6.87683 137.601 7.06625C137.544 7.35038 137.256 7.5019 137.103 7.72921C136.893 8.05123 137.161 8.22173 137.544 8.27856C137.639 8.2975 137.678 8.18382 137.582 8.16488C136.72 8.01334 137.659 7.48298 137.754 7.12307C137.812 6.89577 137.754 6.64951 137.678 6.44115C137.62 6.36538 137.467 6.40324 137.505 6.47901Z" fill="#C1775D"/>
<path d="M138.273 8.56256C138.273 8.56256 138.407 9.28238 137.795 9.3392C137.182 9.39603 137.048 8.77093 137.048 8.77093L138.273 8.56256Z" fill="#FAFFFF"/>
<path d="M139.402 8.25946C139.345 8.48677 139.134 8.61937 138.905 8.56254C138.675 8.50572 138.541 8.29736 138.598 8.07005C138.656 7.84275 138.866 7.71014 139.096 7.76697C139.307 7.8238 139.46 8.05109 139.402 8.25946Z" fill="#C1775D"/>
<path d="M135.841 7.6153C136.014 7.46376 136.282 7.46376 136.435 7.6153C136.607 7.78578 136.588 8.05097 136.435 8.20251C136.262 8.37299 135.994 8.35405 135.841 8.20251C135.669 8.03203 135.669 7.76684 135.841 7.6153Z" fill="#C1775D"/>
<path d="M146.738 20.0797C146.757 20.5722 148.614 26.4822 147.044 28.1112C146.221 28.9637 143.31 26.2549 143.31 26.2549C143.31 26.2549 145.072 25.4214 143.004 21.4625C141.299 18.2044 146.738 20.0797 146.738 20.0797Z" fill="#CC8B6E"/>
<path d="M146.609 28.4142C144.235 29.7591 136.135 30.8199 136.135 30.8199L136.767 28.9256L145.403 25.3834C145.422 25.4024 148.984 27.0693 146.609 28.4142Z" fill="#CC8B6E"/>
<path d="M142.563 16.2342C142.601 14.3589 143.329 12.5783 144.957 12.5215C145.876 12.4836 147.235 13.7527 147.657 14.8892C148.442 17.0676 149.15 20.4204 148.078 24.2657C147.676 25.6674 143.98 26.5577 143.31 24.152C142.41 20.9887 142.505 18.8861 142.563 16.2342Z" fill="#D3841C"/>
<path d="M136.378 28.8877C136.186 28.812 136.052 28.6415 135.899 28.5089C135.612 28.2626 135.248 28.1111 134.884 27.9596C134.692 27.8838 134.367 27.486 134.118 27.6186C133.735 27.8459 134.443 28.3574 134.558 28.5278C134.654 28.6794 134.712 28.9067 134.597 29.0393C134.52 29.134 134.386 29.1719 134.271 29.1908C133.888 29.2666 133.505 29.2855 133.103 29.3423C132.892 29.3613 132.701 29.3991 132.509 29.437C132.356 29.456 132.146 29.437 132.012 29.4939C131.897 29.5507 131.839 29.6833 131.916 29.7969C131.992 29.8916 132.088 29.8349 132.184 29.8349C132.414 29.8349 132.624 29.8348 132.854 29.8538C132.912 29.8538 133.122 29.8348 133.16 29.8727C133.314 30.0811 132.72 30.1569 132.624 30.1758C132.395 30.2137 132.146 30.2705 131.954 30.441C131.935 30.4599 131.916 30.4978 131.916 30.5168C131.916 30.5736 131.992 30.5925 132.031 30.5925C132.337 30.6304 132.643 30.5547 132.95 30.5925C133.007 30.5925 133.065 30.6115 133.065 30.6683C133.141 30.8577 132.758 30.9713 132.624 31.0282C132.548 31.0661 132.452 31.104 132.452 31.1987C132.452 31.2555 132.49 31.2934 132.548 31.3124C132.605 31.3313 132.663 31.3313 132.701 31.3313C132.854 31.3123 133.026 31.3313 133.18 31.2934C133.256 31.2745 133.486 31.2176 133.524 31.3124C133.524 31.3313 133.524 31.3502 133.524 31.3692C133.486 31.4449 133.409 31.4639 133.352 31.5207C133.294 31.5586 133.218 31.6344 133.237 31.7101C133.256 31.8048 133.371 31.8427 133.467 31.8427C133.812 31.8617 134.156 31.7669 134.482 31.6912C134.826 31.6154 135.171 31.5017 135.516 31.3881C135.937 31.2365 136.358 31.0661 136.76 30.8956C137.067 30.763 137.488 30.6683 137.756 30.4789C137.967 30.3463 138.063 30.0811 138.063 29.8159C138.063 29.5696 137.986 29.3423 137.967 29.0961C137.948 28.9445 137.948 28.8309 137.814 28.7551C137.641 28.6794 136.626 28.9446 136.512 28.9446C136.492 28.9256 136.435 28.9067 136.378 28.8877Z" fill="#CC8B6E"/>
<path d="M135.248 4.07352L142.984 6.02458C142.984 6.02458 143.769 2.84225 141.854 1.15638C140.418 -0.0938088 136.454 -1.57129 135.248 4.07352Z" fill="#E79E30"/>
<path d="M140.266 5.34266C140.266 5.34266 136.302 4.94486 134.846 4.26293C133.678 3.71361 135.421 3.33478 135.421 3.33478L140.266 5.34266Z" fill="#D3841C"/>
</svg>
