<svg width="70" height="70" viewBox="0 0 70 70" fill="none" xmlns="http://www.w3.org/2000/svg">
<path d="M67.7567 50.7478L62.5271 46.0267L6.92755 44.6595L1.41406 52.9545V57.5579L9.07022 54.9604L18.3201 57.1926L26.8842 54.9604L35.5466 57.1926L42.7928 54.9604L53.2282 57.1926L59.6112 54.9604L68.2907 57.1926L67.7567 50.7478Z" fill="white"/>
<path d="M58.4471 12.2809H11.7577L1.70898 52.5444L9.50186 50.0834L18.2519 52.9545L26.0448 50.3569L34.9999 52.9545L43.4765 50.3569L51.6796 52.6127L58.7205 50.767L68.2909 52.9545L58.4471 12.2809Z" fill="#ED5564"/>
<path d="M70 53.198C69.9978 53.1831 69.9978 53.168 69.9958 53.1553C69.9958 53.1382 69.9958 53.1189 69.9936 53.0998C69.9914 53.0869 69.9914 53.0741 69.9893 53.0614C69.9872 53.0401 69.9829 53.0208 69.9809 53.0015C69.9787 52.9886 69.9787 52.9802 69.9744 52.9673C69.9702 52.9374 69.9638 52.9074 69.9573 52.8754L59.746 12.0416C59.5858 11.3921 59.0026 10.9371 58.3318 10.9371H11.6661C10.9974 10.9371 10.4143 11.3921 10.2519 12.0416L0.0427932 52.8754C0.0343166 52.9074 0.0299416 52.9374 0.0235158 52.9673C0.0213283 52.9802 0.0213282 52.9886 0.0170899 53.0015C0.0149024 53.0228 0.0128516 53.0399 0.00861333 53.0614C0.00861333 53.0742 0.00642582 53.0871 0.00437503 53.0998C0.00437503 53.1191 0.00218751 53.1382 0.00218751 53.1553C0 53.1682 0 53.1831 0 53.198C0 53.2064 0 53.2193 0 53.2279V57.6028C0 58.0771 0.228595 58.5192 0.613051 58.7927C0.999693 59.0661 1.49325 59.1366 1.93964 58.9807L9.80949 56.2315L17.7519 58.9828C18.0596 59.0896 18.3971 59.0896 18.709 58.9828L26.613 56.2315L34.5213 58.9828C34.8289 59.0896 35.1685 59.0896 35.4783 58.9828L43.3845 56.2315L51.2906 58.9828C51.6025 59.0896 51.94 59.0896 52.2477 58.9828L60.1559 56.2315L68.0621 58.9828C68.2181 59.0341 68.3804 59.0619 68.5407 59.0619C68.8398 59.0619 69.1366 58.97 69.3845 58.7927C69.7711 58.5192 69.9997 58.0771 69.9997 57.6028V53.2279C70 53.2194 70 53.2066 70 53.198ZM27.0918 48.9341C26.7842 48.8273 26.4466 48.8273 26.1348 48.9341L19.9675 51.0789L21.3881 39.7227L27.4977 37.5823L33.5411 39.6821V51.1771L27.0918 48.9341ZM10.2861 48.9341C10.1301 48.8806 9.97 48.8529 9.80976 48.8529C9.64734 48.8529 9.48287 48.8828 9.32701 48.9341L3.52928 50.9614L6.32765 39.7612L12.4971 37.5821L18.4571 39.6372L17.0045 51.2624L10.2861 48.9341ZM9.60892 26.6427L15.1033 24.7563L20.0978 26.508L18.8289 36.6806L12.967 34.6576C12.6552 34.5486 12.3176 34.5508 12.0058 34.6598L7.17791 36.3666L9.60892 26.6427ZM33.541 13.853V23.4704L28.8477 21.8382C28.5401 21.7292 28.2025 21.7292 27.8928 21.836L23.4302 23.3763L24.62 13.853H33.541ZM45.3779 13.853L46.57 23.3763L42.1052 21.836C41.7976 21.7292 41.4601 21.7292 41.1524 21.8382L36.457 23.4704V13.853H45.3779ZM62.8222 36.3667L57.9922 34.6599C57.6824 34.5509 57.3406 34.5489 57.0287 34.6577L51.1713 36.685L49.9002 26.508L54.8969 24.7563L60.3912 26.6427L62.8222 36.3667ZM23.0264 26.602L28.367 24.7563L33.5409 26.5572V36.5953L27.976 34.6599C27.6641 34.5509 27.3265 34.5509 27.0147 34.6599L21.7895 36.4907L23.0264 26.602ZM36.457 26.5572L41.631 24.7563L46.9715 26.602L48.2083 36.4885L42.9831 34.6599C42.6733 34.5509 42.3337 34.5509 42.0239 34.6599L36.4568 36.5953L36.457 26.5572ZM36.457 39.6821L42.5004 37.5823L48.612 39.7185L50.0305 51.0789L43.8654 48.9341C43.5535 48.8273 43.216 48.8273 42.9062 48.9341L36.4568 51.1771L36.457 39.6821ZM52.9935 51.2583L51.543 39.6415L57.503 37.5823L63.6703 39.7613L66.4709 50.9657L60.6346 48.9342C60.3248 48.8274 59.9873 48.8274 59.6775 48.9342L52.9935 51.2583ZM59.5496 23.2695L55.3669 21.834C55.0551 21.7272 54.7197 21.7292 54.4099 21.8382L49.5306 23.5472L48.3172 13.853H57.1954L59.5496 23.2695ZM12.8047 13.853H21.6807L20.4695 23.5472L15.5903 21.8382C15.2805 21.7292 14.943 21.7272 14.6332 21.834L10.4506 23.2695L12.8047 13.853ZM60.6347 53.3091C60.3249 53.2023 59.9875 53.2023 59.6777 53.3091L51.7694 56.0606L43.8654 53.3091C43.5535 53.2023 43.216 53.2023 42.9062 53.3091L35.0001 56.0606L27.0918 53.3091C26.7842 53.2023 26.4466 53.2023 26.1348 53.3091L18.2265 56.0606L10.2861 53.3091C10.1301 53.2557 9.97 53.2279 9.80976 53.2279C9.64734 53.2279 9.48287 53.2578 9.32701 53.3091L2.91623 55.5501V54.2641L9.80976 51.8566L17.7522 54.6081C17.7693 54.6123 17.7822 54.6166 17.7971 54.6209C17.8248 54.6294 17.8548 54.638 17.8847 54.6466C17.9018 54.6509 17.9189 54.6531 17.936 54.6551C17.9637 54.6636 17.9937 54.668 18.0214 54.6722C18.0299 54.6722 18.0385 54.6764 18.0471 54.6764C18.062 54.6786 18.0771 54.6786 18.0898 54.6807C18.1004 54.6807 18.1091 54.6807 18.1197 54.6829C18.1561 54.6851 18.1923 54.6893 18.2307 54.6893C18.2542 54.6893 18.2778 54.6851 18.3033 54.6851C18.3204 54.6851 18.3375 54.6851 18.3546 54.6808C18.3803 54.6808 18.4059 54.6766 18.4336 54.6723C18.4485 54.6702 18.4636 54.6681 18.4785 54.6659C18.5042 54.6617 18.5297 54.6553 18.5553 54.651C18.5724 54.6468 18.5873 54.6425 18.6023 54.6382C18.628 54.6317 18.6494 54.6253 18.6749 54.6168C18.6856 54.6126 18.6963 54.6104 18.7091 54.6084L26.6131 51.8569L34.5214 54.6084C34.5257 54.6084 34.5343 54.6105 34.5407 54.6126C34.56 54.6211 34.5813 54.6255 34.6026 54.6319C34.6261 54.6383 34.6497 54.6425 34.671 54.649C34.6923 54.6554 34.7116 54.6596 34.7309 54.6618C34.7586 54.6682 34.7864 54.6725 34.8121 54.6747C34.8292 54.6769 34.8463 54.6789 34.8633 54.6811C34.9104 54.6853 34.953 54.6875 35.0001 54.6875C35.0449 54.6875 35.0898 54.6853 35.1346 54.6811C35.1539 54.6789 35.1688 54.6769 35.1859 54.6747C35.2136 54.6725 35.2393 54.6682 35.2671 54.6618C35.2864 54.6596 35.3077 54.6554 35.329 54.649C35.3503 54.6425 35.3717 54.6383 35.3952 54.6319C35.4165 54.6255 35.4378 54.6212 35.4593 54.6126C35.4657 54.6104 35.4722 54.6084 35.4786 54.6084L43.3848 51.8569L51.2909 54.6084C51.3037 54.6105 51.3122 54.6126 51.3251 54.6168C51.3486 54.6253 51.3721 54.6317 51.3977 54.6382C51.4126 54.6424 51.4276 54.6466 51.4447 54.651C51.4704 54.6553 51.496 54.6617 51.5215 54.6659C51.5364 54.6681 51.5515 54.6702 51.5686 54.6723C51.5943 54.6766 51.6198 54.6808 51.6454 54.6808C51.6667 54.6851 51.6924 54.6851 51.7138 54.6851C51.7309 54.6851 51.7501 54.6893 51.7693 54.6893C51.8056 54.6893 51.8419 54.6851 51.8803 54.6829C51.8888 54.6807 51.9016 54.6807 51.9123 54.6807C51.9251 54.6785 51.938 54.6764 51.9507 54.6764C51.9592 54.6764 51.9656 54.6722 51.9742 54.6722C52.0042 54.668 52.0361 54.6637 52.0661 54.6551C52.081 54.6529 52.0981 54.6509 52.1152 54.6466C52.1429 54.6382 52.1729 54.6296 52.2006 54.6209C52.2177 54.6167 52.2306 54.6125 52.2477 54.6081L60.1559 51.8566L67.0816 54.2663V55.5523L60.6347 53.3091Z" fill="#080808"/>
</svg>
