<svg width="60" height="60" viewBox="0 0 60 60" fill="none" xmlns="http://www.w3.org/2000/svg">
<path d="M8.4375 4.68652C6.37756 4.68652 4.6875 6.3765 4.6875 8.43647C4.6875 10.4964 6.37756 12.1864 8.4375 12.1864C10.1722 12.1864 11.6303 10.9825 12.052 9.37399H19.6875V13.8564C15.7033 16.9452 13.125 21.7637 13.125 27.1865C13.125 28.4781 13.2832 29.7313 13.559 30.9402H8.43567C8.40578 30.9387 8.37584 30.9387 8.34595 30.9402C8.11445 30.9633 7.89981 31.0716 7.7438 31.2442C7.58778 31.4168 7.50154 31.6413 7.50183 31.874V42.3201C5.89217 42.7411 4.6875 44.2011 4.6875 45.9365C4.6875 47.9965 6.37756 49.6865 8.4375 49.6865C10.4975 49.6865 12.1875 47.9965 12.1875 45.9365C12.1875 44.2024 10.9845 42.7443 9.37683 42.3219V32.8078H14.1083C16.3303 39.0732 22.1404 43.6324 29.0662 44.0139V47.9452C27.4556 48.3656 26.25 49.8254 26.25 51.5615C26.25 53.6215 27.94 55.3115 30 55.3115C32.06 55.3115 33.75 53.6215 33.75 51.5615C33.75 49.8254 32.5444 48.3656 30.9338 47.9452V44.0139C37.8585 43.6325 43.6689 39.0751 45.8917 32.8115H50.625V42.3219C49.0164 42.7437 47.8125 44.2018 47.8125 45.9365C47.8125 47.9965 49.5025 49.6865 51.5625 49.6865C53.6224 49.6865 55.3125 47.9965 55.3125 45.9365C55.3125 44.2018 54.1085 42.7437 52.5 42.3219V31.874C52.4981 31.356 52.0805 30.9343 51.5625 30.9365H46.441C46.7163 29.7287 46.875 28.4768 46.875 27.1865C46.875 21.7637 44.2967 16.9452 40.3125 13.8564V9.37399H47.948C48.3698 10.9825 49.8278 12.1864 51.5625 12.1864C53.6224 12.1864 55.3125 10.4964 55.3125 8.43647C55.3125 6.3765 53.6224 4.68652 51.5625 4.68652C49.8278 4.68652 48.3698 5.8904 47.948 7.49896H39.375C38.857 7.4968 38.4391 7.91848 38.4375 8.43647V12.5948C35.9522 11.1526 33.076 10.3115 30 10.3115C26.924 10.3115 24.0478 11.1526 21.5625 12.5948V8.43647C21.5606 7.91848 21.143 7.4968 20.625 7.49896H12.052C11.6303 5.8904 10.1722 4.68652 8.4375 4.68652ZM8.4375 6.56144C9.48415 6.56144 10.3125 7.38982 10.3125 8.43647C10.3125 9.4831 9.48415 10.3115 8.4375 10.3115C7.39088 10.3115 6.5625 9.4831 6.5625 8.43647C6.5625 7.38982 7.39088 6.56144 8.4375 6.56144ZM51.5625 6.56144C52.6091 6.56144 53.4375 7.38982 53.4375 8.43647C53.4375 9.4831 52.6091 10.3115 51.5625 10.3115C50.5159 10.3115 49.6875 9.4831 49.6875 8.43647C49.6875 7.38982 50.5159 6.56144 51.5625 6.56144ZM30 12.1864C38.2954 12.1864 45 18.8912 45 27.1865C45 35.482 38.2954 42.1865 30 42.1865C21.7046 42.1865 15 35.482 15 27.1865C15 18.8912 21.7046 12.1864 30 12.1864ZM8.4375 44.0615C9.48415 44.0615 10.3125 44.8899 10.3125 45.9365C10.3125 46.9831 9.48415 47.8115 8.4375 47.8115C7.39088 47.8115 6.5625 46.9831 6.5625 45.9365C6.5625 44.8899 7.39088 44.0615 8.4375 44.0615ZM51.5625 44.0615C52.6091 44.0615 53.4375 44.8899 53.4375 45.9365C53.4375 46.9831 52.6091 47.8115 51.5625 47.8115C50.5159 47.8115 49.6875 46.9831 49.6875 45.9365C49.6875 44.8899 50.5159 44.0615 51.5625 44.0615ZM30 49.6865C31.0466 49.6865 31.875 50.5149 31.875 51.5615C31.875 52.6081 31.0466 53.4365 30 53.4365C28.9534 53.4365 28.125 52.6081 28.125 51.5615C28.125 50.5149 28.9534 49.6865 30 49.6865Z" fill="#E63A27"/>
<path d="M30 14.0615C29.7505 14.0615 29.5077 14.1643 29.3353 14.3379L20.8997 22.7736C20.6251 23.0496 20.625 23.4365 20.625 23.4365C20.625 23.4365 20.625 24.374 21.5625 24.374H22.5V37.499C22.5019 38.0169 22.9196 38.4384 23.4375 38.4365H36.5625C37.0804 38.4383 37.4982 38.0169 37.5 37.499C37.5 33.124 37.5 28.749 37.5 24.374H38.4375C39.375 24.374 39.375 23.4365 39.375 23.4365C39.375 23.4365 39.3749 23.0497 39.1003 22.7736L30.6647 14.3379C30.4854 14.1576 30.2549 14.0615 30 14.0615ZM30 16.3229L36.167 22.4972H23.8348L30 16.3229ZM24.375 24.3741H26.25V32.8116H24.375V24.3741ZM28.125 24.3741H31.875V32.8116H28.125V24.3741ZM33.75 24.3741H35.625V32.8116L33.75 32.808V24.3741ZM24.375 34.6865H35.625V36.5615H24.375V34.6865Z" fill="#E63A27"/>
<path d="M30 4.68652C30.1231 4.68652 30.245 4.71078 30.3588 4.75789C30.4725 4.80501 30.5759 4.87412 30.6629 4.96118C30.75 5.04824 30.819 5.15161 30.8662 5.26536C30.9133 5.37911 30.9375 5.50103 30.9375 5.62415C30.9375 5.74726 30.9133 5.86908 30.8662 5.98282C30.819 6.09657 30.75 6.19994 30.6629 6.287C30.5759 6.37406 30.4725 6.44318 30.3588 6.49029C30.245 6.53741 30.1231 6.56166 30 6.56166C29.8769 6.56166 29.755 6.53741 29.6412 6.49029C29.5275 6.44318 29.4241 6.37406 29.3371 6.287C29.25 6.19994 29.181 6.09657 29.1339 5.98282C29.0867 5.86908 29.0625 5.74726 29.0625 5.62415C29.0625 5.50103 29.0867 5.3791 29.1339 5.26536C29.181 5.15162 29.25 5.04824 29.3371 4.96118C29.4241 4.87412 29.5275 4.80501 29.6412 4.75789C29.755 4.71078 29.8769 4.68653 30 4.68652Z" fill="#E63A27"/>
<path d="M26.25 4.68652C26.3731 4.68652 26.495 4.71078 26.6088 4.75789C26.7225 4.80501 26.8259 4.87412 26.9129 4.96118C27 5.04824 27.069 5.15161 27.1162 5.26536C27.1633 5.37911 27.1875 5.50103 27.1875 5.62415C27.1875 5.74726 27.1633 5.86908 27.1162 5.98282C27.069 6.09657 27 6.19994 26.9129 6.287C26.8259 6.37406 26.7225 6.44318 26.6088 6.49029C26.495 6.53741 26.3731 6.56166 26.25 6.56166C26.1269 6.56166 26.005 6.53741 25.8912 6.49029C25.7775 6.44318 25.6741 6.37406 25.5871 6.287C25.5 6.19994 25.431 6.09657 25.3839 5.98282C25.3367 5.86908 25.3125 5.74726 25.3125 5.62415C25.3125 5.50103 25.3367 5.3791 25.3839 5.26536C25.431 5.15162 25.5 5.04824 25.5871 4.96118C25.6741 4.87412 25.7775 4.80501 25.8912 4.75789C26.005 4.71078 26.1269 4.68653 26.25 4.68652Z" fill="#E63A27"/>
<path d="M33.75 4.68652C33.8731 4.68652 33.995 4.71078 34.1088 4.75789C34.2225 4.80501 34.3259 4.87412 34.4129 4.96118C34.5 5.04824 34.569 5.15161 34.6162 5.26536C34.6633 5.37911 34.6875 5.50103 34.6875 5.62415C34.6875 5.74726 34.6633 5.86908 34.6162 5.98282C34.569 6.09657 34.5 6.19994 34.4129 6.287C34.3259 6.37406 34.2225 6.44318 34.1088 6.49029C33.995 6.53741 33.8731 6.56166 33.75 6.56166C33.6269 6.56166 33.505 6.53741 33.3912 6.49029C33.2775 6.44318 33.1741 6.37406 33.0871 6.287C33 6.19994 32.931 6.09657 32.8839 5.98282C32.8367 5.86908 32.8125 5.74726 32.8125 5.62415C32.8125 5.50103 32.8367 5.3791 32.8839 5.26536C32.931 5.15162 33 5.04824 33.0871 4.96118C33.1741 4.87412 33.2775 4.80501 33.3912 4.75789C33.505 4.71078 33.6269 4.68653 33.75 4.68652Z" fill="#E63A27"/>
<path d="M50.625 54.374C50.625 54.4972 50.6492 54.6191 50.6964 54.7328C50.7435 54.8466 50.8125 54.9499 50.8996 55.037C50.9866 55.1241 51.09 55.1932 51.2037 55.2403C51.3175 55.2874 51.4394 55.3117 51.5625 55.3117C51.6856 55.3117 51.8075 55.2874 51.9213 55.2403C52.035 55.1932 52.1384 55.1241 52.2254 55.037C52.3125 54.9499 52.3815 54.8466 52.4287 54.7328C52.4758 54.6191 52.5 54.4972 52.5 54.374C52.5 54.2509 52.4758 54.1291 52.4287 54.0154C52.3815 53.9016 52.3125 53.7982 52.2254 53.7112C52.1384 53.6241 52.035 53.555 51.9213 53.5079C51.8075 53.4608 51.6856 53.4365 51.5625 53.4365C51.4394 53.4365 51.3175 53.4608 51.2037 53.5079C51.09 53.555 50.9866 53.6241 50.8996 53.7112C50.8125 53.7982 50.7435 53.9016 50.6964 54.0154C50.6492 54.1291 50.625 54.2509 50.625 54.374Z" fill="#E63A27"/>
<path d="M48.75 54.374C48.75 55.3116 47.8125 55.3117 47.8125 55.3117H38.4375C37.8123 55.3117 37.5 54.8429 37.5 54.374C37.5 53.9052 37.8122 53.4365 38.4375 53.4365H47.8125C47.8125 53.4365 48.75 53.4365 48.75 54.374Z" fill="#E63A27"/>
<path d="M39.375 50.624C39.375 50.7472 39.3508 50.8691 39.3037 50.9828C39.2565 51.0966 39.1875 51.1999 39.1004 51.287C39.0134 51.3741 38.91 51.4431 38.7963 51.4902C38.6826 51.5373 38.5606 51.5616 38.4375 51.5616C38.3144 51.5616 38.1925 51.5373 38.0787 51.4902C37.965 51.4431 37.8616 51.3741 37.7746 51.287C37.6875 51.1999 37.6185 51.0966 37.5714 50.9828C37.5242 50.8691 37.5 50.7472 37.5 50.624C37.5 50.5009 37.5242 50.379 37.5714 50.2653C37.6185 50.1515 37.6875 50.0481 37.7746 49.9611C37.8616 49.874 37.965 49.805 38.0787 49.7579C38.1925 49.7108 38.3144 49.6865 38.4375 49.6865C38.5606 49.6865 38.6826 49.7108 38.7963 49.7579C38.91 49.805 39.0134 49.874 39.1004 49.9611C39.1875 50.0481 39.2565 50.1515 39.3037 50.2653C39.3508 50.379 39.375 50.5009 39.375 50.624Z" fill="#E63A27"/>
<path d="M41.25 50.624C41.25 51.5615 42.1875 51.5616 42.1875 51.5616H45.9375C46.5627 51.5616 46.875 51.0929 46.875 50.624C46.875 50.1552 46.5625 49.6865 45.9375 49.6865H42.1875C42.1875 49.6865 41.25 49.6865 41.25 50.624Z" fill="#E63A27"/>
<path d="M7.5 54.374C7.5 54.4972 7.52424 54.6191 7.57136 54.7328C7.61847 54.8466 7.68752 54.9499 7.77458 55.037C7.86163 55.1241 7.96498 55.1932 8.07872 55.2403C8.19246 55.2874 8.31437 55.3117 8.43749 55.3117C8.56061 55.3117 8.68252 55.2874 8.79627 55.2403C8.91001 55.1932 9.01337 55.1241 9.10042 55.037C9.18748 54.9499 9.25654 54.8466 9.30365 54.7328C9.35077 54.6191 9.37501 54.4972 9.37501 54.374C9.37501 54.2509 9.35077 54.1291 9.30365 54.0154C9.25654 53.9016 9.18748 53.7982 9.10042 53.7112C9.01337 53.6241 8.91001 53.555 8.79627 53.5079C8.68252 53.4608 8.56061 53.4365 8.43749 53.4365C8.31437 53.4365 8.19246 53.4608 8.07872 53.5079C7.96498 53.555 7.86163 53.6241 7.77458 53.7112C7.68752 53.7982 7.61847 53.9016 7.57136 54.0154C7.52424 54.1291 7.5 54.2509 7.5 54.374Z" fill="#E63A27"/>
<path d="M22.5 54.374C22.5 55.3116 21.5625 55.3117 21.5625 55.3117H12.1875C11.5623 55.3117 11.25 54.8429 11.25 54.374C11.25 53.9052 11.5622 53.4365 12.1875 53.4365H21.5625C21.5625 53.4365 22.5 53.4365 22.5 54.374Z" fill="#E63A27"/>
<path d="M22.5 50.624C22.5 50.7472 22.4758 50.8691 22.4287 50.9828C22.3815 51.0966 22.3125 51.1999 22.2254 51.287C22.1384 51.3741 22.035 51.4431 21.9213 51.4902C21.8075 51.5373 21.6856 51.5616 21.5625 51.5616C21.4394 51.5616 21.3175 51.5373 21.2037 51.4902C21.09 51.4431 20.9866 51.3741 20.8996 51.287C20.8125 51.1999 20.7435 51.0966 20.6964 50.9828C20.6492 50.8691 20.625 50.7472 20.625 50.624C20.625 50.5009 20.6492 50.379 20.6964 50.2653C20.7435 50.1515 20.8125 50.0481 20.8996 49.9611C20.9866 49.874 21.09 49.805 21.2037 49.7579C21.3175 49.7108 21.4394 49.6865 21.5625 49.6865C21.6856 49.6865 21.8075 49.7108 21.9213 49.7579C22.035 49.805 22.1384 49.874 22.2254 49.9611C22.3125 50.0481 22.3815 50.1515 22.4287 50.2653C22.4758 50.379 22.5 50.5009 22.5 50.624Z" fill="#E63A27"/>
<path d="M13.125 50.624C13.125 51.5615 14.0625 51.5616 14.0625 51.5616H17.8125C18.4377 51.5616 18.75 51.0929 18.75 50.624C18.75 50.1552 18.4375 49.6865 17.8125 49.6865H14.0625C14.0625 49.6865 13.125 49.6865 13.125 50.624Z" fill="#E63A27"/>
<path d="M10.3125 22.499C10.4356 22.499 10.5575 22.5233 10.6713 22.5704C10.785 22.6175 10.8884 22.6865 10.9754 22.7736C11.0625 22.8606 11.1315 22.964 11.1786 23.0778C11.2258 23.1915 11.25 23.3134 11.25 23.4365C11.25 23.5597 11.2258 23.6816 11.1787 23.7953C11.1315 23.9091 11.0625 24.0124 10.9754 24.0995C10.8884 24.1866 10.785 24.2556 10.6713 24.3027C10.5575 24.3498 10.4356 24.3741 10.3125 24.3741C10.1894 24.3741 10.0675 24.3498 9.95372 24.3027C9.83998 24.2556 9.73663 24.1865 9.64958 24.0994C9.56252 24.0123 9.49347 23.9091 9.44636 23.7953C9.39924 23.6816 9.375 23.5597 9.375 23.4365C9.375 23.1879 9.47377 22.9494 9.64959 22.7736C9.8254 22.5978 10.0639 22.499 10.3125 22.499Z" fill="#E63A27"/>
<path d="M6.56249 20.624C6.6856 20.624 6.80751 20.6482 6.92126 20.6953C7.035 20.7424 7.13836 20.8115 7.22541 20.8986C7.31247 20.9856 7.38153 21.089 7.42864 21.2028C7.47576 21.3165 7.50001 21.4383 7.50001 21.5614C7.50001 21.6845 7.47577 21.8065 7.42865 21.9202C7.38154 22.034 7.31248 22.1373 7.22542 22.2244C7.13837 22.3115 7.03501 22.3806 6.92127 22.4277C6.80752 22.4748 6.68561 22.4989 6.56249 22.4989C6.43937 22.4989 6.31746 22.4747 6.20372 22.4276C6.08998 22.3805 5.98663 22.3115 5.89957 22.2244C5.81252 22.1373 5.74347 22.034 5.69636 21.9202C5.64924 21.8065 5.625 21.6845 5.625 21.5614C5.625 21.3128 5.72377 21.0744 5.89959 20.8986C6.0754 20.7228 6.31385 20.624 6.56249 20.624Z" fill="#E63A27"/>
<path d="M53.4375 24.374C53.5606 24.374 53.6825 24.3983 53.7963 24.4454C53.91 24.4925 54.0134 24.5615 54.1004 24.6486C54.1875 24.7356 54.2565 24.839 54.3036 24.9528C54.3508 25.0665 54.375 25.1884 54.375 25.3115C54.375 25.4347 54.3508 25.5566 54.3037 25.6703C54.2565 25.7841 54.1875 25.8873 54.1004 25.9744C54.0134 26.0615 53.91 26.1306 53.7963 26.1777C53.6825 26.2248 53.5606 26.2491 53.4375 26.2491C53.3144 26.2491 53.1925 26.2248 53.0787 26.1777C52.965 26.1306 52.8616 26.0615 52.7746 25.9744C52.6875 25.8873 52.6185 25.7841 52.5714 25.6703C52.5242 25.5566 52.5 25.4347 52.5 25.3115C52.5 25.0629 52.5988 24.8244 52.7746 24.6486C52.9504 24.4728 53.1889 24.374 53.4375 24.374Z" fill="#E63A27"/>
<path d="M49.6875 22.499C49.8106 22.499 49.9325 22.5233 50.0463 22.5704C50.16 22.6175 50.2634 22.6865 50.3504 22.7736C50.4375 22.8606 50.5065 22.964 50.5536 23.0778C50.6008 23.1915 50.625 23.3134 50.625 23.4365C50.625 23.5597 50.6008 23.6816 50.5537 23.7953C50.5065 23.9091 50.4375 24.0124 50.3504 24.0995C50.2634 24.1866 50.16 24.2556 50.0463 24.3027C49.9325 24.3498 49.8106 24.3741 49.6875 24.3741C49.5644 24.3741 49.4425 24.3498 49.3287 24.3027C49.215 24.2556 49.1116 24.1865 49.0246 24.0994C48.9375 24.0123 48.8685 23.9091 48.8214 23.7953C48.7742 23.6816 48.75 23.5597 48.75 23.4365C48.75 23.1879 48.8488 22.9494 49.0246 22.7736C49.2004 22.5978 49.4389 22.499 49.6875 22.499Z" fill="#E63A27"/>
<path d="M6.56249 24.374C6.6856 24.374 6.80751 24.3983 6.92126 24.4454C7.035 24.4925 7.13836 24.5615 7.22541 24.6486C7.31247 24.7356 7.38153 24.839 7.42864 24.9528C7.47576 25.0665 7.50001 25.1884 7.50001 25.3115C7.50001 25.4347 7.47577 25.5566 7.42865 25.6703C7.38154 25.7841 7.31248 25.8873 7.22542 25.9744C7.13837 26.0615 7.03501 26.1306 6.92127 26.1777C6.80752 26.2248 6.68561 26.2491 6.56249 26.2491C6.43937 26.2491 6.31746 26.2248 6.20372 26.1777C6.08998 26.1306 5.98663 26.0615 5.89957 25.9744C5.81252 25.8873 5.74347 25.7841 5.69636 25.6703C5.64924 25.5566 5.625 25.4347 5.625 25.3115C5.625 25.0629 5.72377 24.8244 5.89959 24.6486C6.0754 24.4728 6.31385 24.374 6.56249 24.374Z" fill="#E63A27"/>
<path d="M53.4375 20.624C53.5606 20.624 53.6825 20.6482 53.7963 20.6953C53.91 20.7424 54.0134 20.8115 54.1004 20.8986C54.1875 20.9856 54.2565 21.089 54.3036 21.2028C54.3508 21.3165 54.375 21.4383 54.375 21.5614C54.375 21.6845 54.3508 21.8065 54.3037 21.9202C54.2565 22.034 54.1875 22.1373 54.1004 22.2244C54.0134 22.3115 53.91 22.3806 53.7963 22.4277C53.6825 22.4748 53.5606 22.4989 53.4375 22.4989C53.3144 22.4989 53.1925 22.4747 53.0787 22.4276C52.965 22.3805 52.8616 22.3115 52.7746 22.2244C52.6875 22.1373 52.6185 22.034 52.5714 21.9202C52.5242 21.8065 52.5 21.6845 52.5 21.5614C52.5 21.3128 52.5988 21.0744 52.7746 20.8986C52.9504 20.7228 53.1889 20.624 53.4375 20.624Z" fill="#E63A27"/>
</svg>
