<svg width="70" height="70" viewBox="0 0 70 70" fill="none" xmlns="http://www.w3.org/2000/svg">
<g clip-path="url(#clip0_2823_9936)">
<path d="M63.6947 26.7623H6.27051V66.9113H63.6947V26.7623Z" fill="white"/>
<path d="M63.6947 26.7623H6.27051V31.0811H63.6947V26.7623Z" fill="#BAC6CC"/>
<path d="M68.7822 26.7623H1.18164L7.24074 14.0138L9.47855 9.30627H60.4853L68.7822 26.7623Z" fill="#FCD577"/>
<path d="M15.1127 9.30627L13.3084 17.1649L7.24121 14.0138L9.47902 9.30627H15.1127Z" fill="#EAC36E"/>
<path d="M32.8231 35.3999H13.9482V51.8753H32.8231V35.3999Z" fill="#4EBFED"/>
<path d="M32.8225 35.3999V51.8755H19.6533L25.1862 35.3999H32.8225Z" fill="#92DDF4"/>
<path d="M56.8164 35.3999H42.2188V66.9113H56.8164V35.3999Z" fill="#DCE8EF"/>
<path d="M52.8176 39.3988H46.2178V62.9124H52.8176V39.3988Z" fill="#4EBFED"/>
<path d="M24.1857 3.08875H13.3086V17.1649H24.1857V3.08875Z" fill="#FF6F52"/>
<path d="M34.6622 51.8755H12.1084V55.8744H34.6622V51.8755Z" fill="#DCE8EF"/>
<path d="M27.6421 10.506H51.0757C51.7384 10.506 52.2754 9.96881 52.2754 9.30627C52.2754 8.64374 51.7384 8.10657 51.0757 8.10657H27.6421C26.9796 8.10657 26.4424 8.64374 26.4424 9.30627C26.4424 9.96881 26.9796 10.506 27.6421 10.506Z" fill="black"/>
<path d="M69.8837 26.2473L61.5868 8.7913C61.3881 8.37308 60.9664 8.10647 60.5034 8.10647H55.0745C54.4118 8.10647 53.8748 8.64364 53.8748 9.30618C53.8748 9.96872 54.4118 10.5059 55.0745 10.5059H59.7452L66.9016 25.5626H63.7121H6.28788H3.09823L10.2546 10.5059H12.1263V17.1649C12.1263 17.8274 12.6635 18.3646 13.326 18.3646H24.2031C24.8656 18.3646 25.4028 17.8274 25.4028 17.1649V3.08862C25.4028 2.42608 24.8656 1.88892 24.2031 1.88892H13.3259C12.6633 1.88892 12.1262 2.42608 12.1262 3.08862V8.10647H9.49667C9.0336 8.10647 8.61196 8.37294 8.41317 8.7913L0.116119 26.2473C-0.0605219 26.619 -0.0342719 27.0551 0.185572 27.4031C0.405552 27.751 0.788228 27.962 1.19975 27.962H5.08831V66.9112C5.08831 67.5738 5.62547 68.111 6.28801 68.111H63.7122C64.3749 68.111 64.9119 67.5738 64.9119 66.9112V27.962H68.8005C69.2119 27.962 69.5948 27.751 69.8147 27.4031C70.0344 27.0551 70.0605 26.619 69.8837 26.2473ZM14.5256 4.28847H23.0033V15.9652H14.5256V4.28847ZM62.5125 65.7117H58.0337V45.9571C58.0337 45.2945 57.4967 44.7574 56.834 44.7574C56.1714 44.7574 55.6343 45.2945 55.6343 45.9571V65.7117H43.4364V36.5996H55.6343V41.9582C55.6343 42.6207 56.1714 43.1579 56.834 43.1579C57.4967 43.1579 58.0337 42.6207 58.0337 41.9582V35.3999C58.0337 34.7374 57.4967 34.2002 56.834 34.2002H42.2367C41.574 34.2002 41.037 34.7374 41.037 35.3999V65.7115H7.48758V27.962H62.5125V65.7117Z" fill="black"/>
<path d="M52.8353 38.1992H46.2358C45.5732 38.1992 45.0361 38.7364 45.0361 39.3989V62.9125C45.0361 63.575 45.5732 64.1122 46.2358 64.1122H52.8353C53.4979 64.1122 54.035 63.575 54.035 62.9125V39.3988C54.035 38.7363 53.4979 38.1992 52.8353 38.1992ZM47.4354 46.357H51.6355V49.9559H47.4354V46.357ZM47.4354 52.3553H51.6355V55.9543H47.4354V52.3553ZM51.6355 40.5985V43.9575H47.4354V40.5985H51.6355ZM47.4354 61.7128V58.3538H51.6355V61.7128H47.4354Z" fill="black"/>
<path d="M12.1266 57.0741H14.1261C14.7887 57.0741 15.3258 56.5369 15.3258 55.8744C15.3258 55.2118 14.7887 54.6747 14.1261 54.6747H13.3263V53.075H13.9662H33.4808V54.6747H17.3252C16.6627 54.6747 16.1255 55.2118 16.1255 55.8744C16.1255 56.5369 16.6627 57.0741 17.3252 57.0741H34.6804C35.3429 57.0741 35.8801 56.5369 35.8801 55.8744V51.8755C35.8801 51.2129 35.3431 50.6758 34.6804 50.6758H34.0406V35.3999C34.0406 34.7374 33.5034 34.2002 32.8409 34.2002H13.966C13.3035 34.2002 12.7663 34.7374 12.7663 35.3999V50.6758H12.1265C11.4639 50.6758 10.9268 51.2129 10.9268 51.8755V55.8744C10.9269 56.5369 11.4641 57.0741 12.1266 57.0741ZM24.6031 50.6758V44.8373H31.6412V50.6758H24.6031ZM31.6412 42.438H24.6031V36.5996H31.6412V42.438ZM22.2039 36.5996V42.438H15.1659V36.5996H22.2039ZM15.1657 44.8373H22.2037V50.6758H15.1657V44.8373Z" fill="black"/>
</g>
<defs>
<clipPath id="clip0_2823_9936">
<rect width="70" height="70" fill="white"/>
</clipPath>
</defs>
</svg>
