<svg width="50" height="50" viewBox="0 0 50 50" fill="none" xmlns="http://www.w3.org/2000/svg">
<path d="M7.03125 3.90533C5.31463 3.90533 3.90625 5.31365 3.90625 7.03029C3.90625 8.74691 5.31463 10.1553 7.03125 10.1553C8.47681 10.1553 9.69188 9.15202 10.0433 7.81155H16.4063V11.5469C13.086 14.1209 10.9375 18.1363 10.9375 22.6554C10.9375 23.7316 11.0693 24.776 11.2991 25.7834H7.02973C7.00482 25.7822 6.97987 25.7822 6.95496 25.7834C6.76204 25.8026 6.58318 25.8929 6.45317 26.0368C6.32315 26.1806 6.25128 26.3677 6.25152 26.5616V35.2667C4.91014 35.6175 3.90625 36.8341 3.90625 38.2803C3.90625 39.997 5.31463 41.4053 7.03125 41.4053C8.74789 41.4053 10.1563 39.997 10.1563 38.2803C10.1563 36.8353 9.15377 35.6202 7.81402 35.2682V27.3398H11.7569C13.6086 32.5609 18.4503 36.3602 24.2218 36.6781V39.9542C22.8797 40.3045 21.875 41.5211 21.875 42.9678C21.875 44.6844 23.2834 46.0929 25 46.0929C26.7166 46.0929 28.125 44.6844 28.125 42.9678C28.125 41.5211 27.1203 40.3045 25.7782 39.9542V36.6781C31.5487 36.3603 36.3907 32.5625 38.2431 27.3428H42.1875V35.2682C40.847 35.6197 39.8438 36.8348 39.8438 38.2803C39.8438 39.997 41.2521 41.4053 42.9688 41.4053C44.6854 41.4053 46.0938 39.997 46.0938 38.2803C46.0938 36.8348 45.0904 35.6197 43.75 35.2682V26.5616C43.7484 26.1299 43.4004 25.7785 42.9688 25.7803H38.7009C38.9302 24.7738 39.0625 23.7306 39.0625 22.6554C39.0625 18.1363 36.914 14.1209 33.5938 11.5469V7.81155H39.9567C40.3081 9.15202 41.5232 10.1553 42.9688 10.1553C44.6854 10.1553 46.0938 8.74691 46.0938 7.03029C46.0938 5.31365 44.6854 3.90533 42.9688 3.90533C41.5232 3.90533 40.3081 4.90857 39.9567 6.24903H32.8125C32.3808 6.24723 32.0326 6.59863 32.0313 7.03029V10.4956C29.9601 9.29374 27.5633 8.59282 25 8.59282C22.4367 8.59282 20.0399 9.29374 17.9687 10.4956V7.03029C17.9672 6.59863 17.6192 6.24723 17.1875 6.24903H10.0433C9.69188 4.90857 8.47681 3.90533 7.03125 3.90533ZM7.03125 5.46777C7.90346 5.46777 8.59375 6.15808 8.59375 7.03029C8.59375 7.90248 7.90346 8.59282 7.03125 8.59282C6.15906 8.59282 5.46875 7.90248 5.46875 7.03029C5.46875 6.15808 6.15906 5.46777 7.03125 5.46777ZM42.9688 5.46777C43.8409 5.46777 44.5313 6.15808 44.5313 7.03029C44.5313 7.90248 43.8409 8.59282 42.9688 8.59282C42.0965 8.59282 41.4063 7.90248 41.4063 7.03029C41.4063 6.15808 42.0965 5.46777 42.9688 5.46777ZM25 10.1553C31.9128 10.1553 37.5 15.7426 37.5 22.6554C37.5 29.5682 31.9128 35.1553 25 35.1553C18.0872 35.1553 12.5 29.5682 12.5 22.6554C12.5 15.7426 18.0872 10.1553 25 10.1553ZM7.03125 36.7178C7.90346 36.7178 8.59375 37.4081 8.59375 38.2803C8.59375 39.1525 7.90346 39.8428 7.03125 39.8428C6.15906 39.8428 5.46875 39.1525 5.46875 38.2803C5.46875 37.4081 6.15906 36.7178 7.03125 36.7178ZM42.9688 36.7178C43.8409 36.7178 44.5313 37.4081 44.5313 38.2803C44.5313 39.1525 43.8409 39.8428 42.9688 39.8428C42.0965 39.8428 41.4063 39.1525 41.4063 38.2803C41.4063 37.4081 42.0965 36.7178 42.9688 36.7178ZM25 41.4053C25.8722 41.4053 26.5625 42.0956 26.5625 42.9678C26.5625 43.84 25.8722 44.5303 25 44.5303C24.1278 44.5303 23.4375 43.84 23.4375 42.9678C23.4375 42.0956 24.1278 41.4053 25 41.4053Z" fill="white"/>
<path d="M25 11.7178C24.7921 11.7178 24.5898 11.8035 24.4461 11.9482L17.4164 18.9779C17.1875 19.2079 17.1875 19.5303 17.1875 19.5303C17.1875 19.5303 17.1875 20.3115 17.9687 20.3115H18.75V31.249C18.7516 31.6807 19.0996 32.0319 19.5312 32.0303H30.4688C30.9004 32.0319 31.2485 31.6807 31.25 31.249C31.25 27.6032 31.25 23.9574 31.25 20.3115H32.0312C32.8125 20.3115 32.8125 19.5303 32.8125 19.5303C32.8125 19.5303 32.8125 19.208 32.5836 18.9779L25.5539 11.9482C25.4045 11.7979 25.2124 11.7178 25 11.7178ZM25 13.6023L30.1392 18.7476H19.8624L25 13.6023ZM20.3125 20.3116H21.875V27.3429H20.3125V20.3116ZM23.4375 20.3116H26.5625V27.3429H23.4375V20.3116ZM28.125 20.3116H29.6875V27.3429L28.125 27.3399V20.3116ZM20.3125 28.9053H29.6875V30.4679H20.3125V28.9053Z" fill="white"/>
<path d="M25 3.90521C25.1026 3.90521 25.2042 3.92542 25.299 3.96469C25.3938 4.00395 25.4799 4.06155 25.5524 4.13409C25.625 4.20664 25.6825 4.29279 25.7218 4.38758C25.7611 4.48237 25.7813 4.58397 25.7813 4.68656C25.7813 4.78916 25.7611 4.89067 25.7218 4.98546C25.6825 5.08025 25.625 5.1664 25.5524 5.23894C25.4799 5.31149 25.3938 5.36909 25.299 5.40835C25.2042 5.44761 25.1026 5.46783 25 5.46783C24.8974 5.46782 24.7958 5.44762 24.701 5.40835C24.6062 5.36909 24.5201 5.31149 24.4476 5.23894C24.375 5.1664 24.3175 5.08025 24.2782 4.98546C24.239 4.89068 24.2187 4.78916 24.2188 4.68656C24.2187 4.58397 24.239 4.48236 24.2782 4.38758C24.3175 4.29279 24.375 4.20664 24.4476 4.13409C24.5201 4.06155 24.6062 4.00395 24.701 3.96469C24.7958 3.92542 24.8974 3.90521 25 3.90521Z" fill="white"/>
<path d="M21.875 3.90521C21.9776 3.90521 22.0792 3.92542 22.174 3.96469C22.2688 4.00395 22.3549 4.06155 22.4274 4.13409C22.5 4.20664 22.5575 4.29279 22.5968 4.38758C22.6361 4.48237 22.6563 4.58397 22.6563 4.68656C22.6563 4.78916 22.6361 4.89067 22.5968 4.98546C22.5575 5.08025 22.5 5.1664 22.4274 5.23894C22.3549 5.31149 22.2688 5.36909 22.174 5.40835C22.0792 5.44761 21.9776 5.46783 21.875 5.46783C21.7724 5.46782 21.6708 5.44762 21.576 5.40835C21.4812 5.36909 21.3951 5.31149 21.3226 5.23894C21.25 5.1664 21.1925 5.08025 21.1532 4.98546C21.114 4.89068 21.0937 4.78916 21.0938 4.68656C21.0937 4.58397 21.114 4.48236 21.1532 4.38758C21.1925 4.29279 21.25 4.20664 21.3226 4.13409C21.3951 4.06155 21.4812 4.00395 21.576 3.96469C21.6708 3.92542 21.7724 3.90521 21.875 3.90521Z" fill="white"/>
<path d="M28.125 3.90521C28.2276 3.90521 28.3292 3.92542 28.424 3.96469C28.5188 4.00395 28.6049 4.06155 28.6774 4.13409C28.75 4.20664 28.8075 4.29279 28.8468 4.38758C28.8861 4.48237 28.9063 4.58397 28.9063 4.68656C28.9063 4.78916 28.8861 4.89067 28.8468 4.98546C28.8075 5.08025 28.75 5.1664 28.6774 5.23894C28.6049 5.31149 28.5188 5.36909 28.424 5.40835C28.3292 5.44761 28.2276 5.46783 28.125 5.46783C28.0224 5.46782 27.9208 5.44762 27.826 5.40835C27.7312 5.36909 27.6451 5.31149 27.5726 5.23894C27.5 5.1664 27.4425 5.08025 27.4032 4.98546C27.364 4.89068 27.3437 4.78916 27.3438 4.68656C27.3437 4.58397 27.364 4.48236 27.4032 4.38758C27.4425 4.29279 27.5 4.20664 27.5726 4.13409C27.6451 4.06155 27.7312 4.00395 27.826 3.96469C27.9208 3.92542 28.0224 3.90521 28.125 3.90521Z" fill="white"/>
<path d="M42.1875 45.3115C42.1875 45.4141 42.2077 45.5157 42.247 45.6105C42.2862 45.7053 42.3438 45.7914 42.4163 45.8639C42.4889 45.9365 42.575 45.9941 42.6698 46.0334C42.7646 46.0726 42.8661 46.0928 42.9687 46.0928C43.0713 46.0928 43.1729 46.0726 43.2677 46.0334C43.3625 45.9941 43.4486 45.9365 43.5212 45.8639C43.5937 45.7914 43.6513 45.7053 43.6905 45.6105C43.7298 45.5157 43.75 45.4141 43.75 45.3115C43.75 45.2089 43.7298 45.1074 43.6905 45.0126C43.6513 44.9178 43.5937 44.8316 43.5212 44.7591C43.4486 44.6865 43.3625 44.6289 43.2677 44.5897C43.1729 44.5504 43.0713 44.5302 42.9687 44.5302C42.8661 44.5302 42.7646 44.5504 42.6698 44.5897C42.575 44.6289 42.4889 44.6865 42.4163 44.7591C42.3438 44.8316 42.2862 44.9178 42.247 45.0126C42.2077 45.1074 42.1875 45.2089 42.1875 45.3115Z" fill="white"/>
<path d="M40.625 45.3115C40.625 46.0927 39.8437 46.0928 39.8437 46.0928H32.0312C31.5103 46.0928 31.25 45.7022 31.25 45.3115C31.25 44.9207 31.5101 44.5302 32.0312 44.5302H39.8437C39.8437 44.5302 40.625 44.5302 40.625 45.3115Z" fill="white"/>
<path d="M32.8125 42.1866C32.8125 42.2892 32.7923 42.3908 32.753 42.4856C32.7138 42.5804 32.6562 42.6665 32.5837 42.7391C32.5112 42.8116 32.425 42.8691 32.3302 42.9084C32.2355 42.9476 32.1339 42.9679 32.0313 42.9679C31.9287 42.9679 31.8271 42.9476 31.7323 42.9084C31.6375 42.8691 31.5514 42.8116 31.4788 42.7391C31.4063 42.6665 31.3487 42.5804 31.3095 42.4856C31.2702 42.3908 31.25 42.2892 31.25 42.1866C31.25 42.084 31.2702 41.9824 31.3095 41.8876C31.3487 41.7928 31.4063 41.7067 31.4788 41.6341C31.5514 41.5616 31.6375 41.5041 31.7323 41.4648C31.8271 41.4255 31.9287 41.4053 32.0313 41.4053C32.1339 41.4053 32.2355 41.4255 32.3302 41.4648C32.425 41.5041 32.5112 41.5616 32.5837 41.6341C32.6562 41.7067 32.7138 41.7928 32.753 41.8876C32.7923 41.9824 32.8125 42.084 32.8125 42.1866Z" fill="white"/>
<path d="M34.375 42.1866C34.375 42.9678 35.1563 42.9679 35.1563 42.9679H38.2813C38.8022 42.9679 39.0625 42.5773 39.0625 42.1866C39.0625 41.7959 38.8021 41.4053 38.2813 41.4053H35.1563C35.1563 41.4053 34.375 41.4053 34.375 42.1866Z" fill="white"/>
<path d="M6.25 45.3115C6.25 45.4141 6.2702 45.5157 6.30946 45.6105C6.34872 45.7053 6.40627 45.7914 6.47881 45.8639C6.55136 45.9365 6.63748 45.9941 6.73227 46.0334C6.82705 46.0726 6.92864 46.0928 7.03124 46.0928C7.13384 46.0928 7.23543 46.0726 7.33022 46.0334C7.42501 45.9941 7.51114 45.9365 7.58369 45.8639C7.65624 45.7914 7.71378 45.7053 7.75304 45.6105C7.79231 45.5157 7.81251 45.4141 7.81251 45.3115C7.81251 45.2089 7.79231 45.1074 7.75304 45.0126C7.71378 44.9178 7.65624 44.8316 7.58369 44.7591C7.51114 44.6865 7.42501 44.6289 7.33022 44.5897C7.23543 44.5504 7.13384 44.5302 7.03124 44.5302C6.92864 44.5302 6.82705 44.5504 6.73227 44.5897C6.63748 44.6289 6.55136 44.6865 6.47881 44.7591C6.40627 44.8316 6.34872 44.9178 6.30946 45.0126C6.2702 45.1074 6.25 45.2089 6.25 45.3115Z" fill="white"/>
<path d="M18.75 45.3115C18.75 46.0927 17.9687 46.0928 17.9687 46.0928H10.1562C9.63526 46.0928 9.375 45.7022 9.375 45.3115C9.375 44.9207 9.63514 44.5302 10.1562 44.5302H17.9687C17.9687 44.5302 18.75 44.5302 18.75 45.3115Z" fill="white"/>
<path d="M18.75 42.1866C18.75 42.2892 18.7298 42.3908 18.6905 42.4856C18.6513 42.5804 18.5937 42.6665 18.5212 42.7391C18.4487 42.8116 18.3625 42.8691 18.2677 42.9084C18.173 42.9476 18.0714 42.9679 17.9688 42.9679C17.8662 42.9679 17.7646 42.9476 17.6698 42.9084C17.575 42.8691 17.4889 42.8116 17.4163 42.7391C17.3438 42.6665 17.2862 42.5804 17.247 42.4856C17.2077 42.3908 17.1875 42.2892 17.1875 42.1866C17.1875 42.084 17.2077 41.9824 17.247 41.8876C17.2862 41.7928 17.3438 41.7067 17.4163 41.6341C17.4889 41.5616 17.575 41.5041 17.6698 41.4648C17.7646 41.4255 17.8662 41.4053 17.9688 41.4053C18.0714 41.4053 18.173 41.4255 18.2677 41.4648C18.3625 41.5041 18.4487 41.5616 18.5212 41.6341C18.5937 41.7067 18.6513 41.7928 18.6905 41.8876C18.7298 41.9824 18.75 42.084 18.75 42.1866Z" fill="white"/>
<path d="M10.9375 42.1866C10.9375 42.9678 11.7188 42.9679 11.7188 42.9679H14.8438C15.3647 42.9679 15.625 42.5773 15.625 42.1866C15.625 41.7959 15.3646 41.4053 14.8438 41.4053H11.7188C11.7188 41.4053 10.9375 41.4053 10.9375 42.1866Z" fill="white"/>
<path d="M8.59374 18.7491C8.69634 18.7491 8.79793 18.7693 8.89272 18.8086C8.9875 18.8478 9.07363 18.9053 9.14618 18.9779C9.21872 19.0504 9.27627 19.1366 9.31554 19.2314C9.3548 19.3261 9.37501 19.4278 9.37501 19.5303C9.37501 19.6329 9.35481 19.7345 9.31554 19.8293C9.27628 19.9241 9.21874 20.0103 9.14619 20.0828C9.07364 20.1554 8.98751 20.2129 8.89272 20.2521C8.79793 20.2914 8.69634 20.3116 8.59374 20.3116C8.49114 20.3116 8.38955 20.2914 8.29477 20.2521C8.19998 20.2129 8.11386 20.1553 8.04131 20.0827C7.96877 20.0102 7.91122 19.9241 7.87196 19.8293C7.8327 19.7345 7.8125 19.6329 7.8125 19.5303C7.8125 19.3231 7.89481 19.1244 8.04132 18.9779C8.18783 18.8314 8.38654 18.7491 8.59374 18.7491Z" fill="white"/>
<path d="M5.46874 17.1866C5.57134 17.1866 5.67293 17.2067 5.76772 17.246C5.8625 17.2852 5.94863 17.3428 6.02118 17.4154C6.09372 17.4879 6.15127 17.5741 6.19054 17.6689C6.2298 17.7636 6.25001 17.8652 6.25001 17.9678C6.25001 18.0704 6.22981 18.172 6.19054 18.2667C6.15128 18.3615 6.09373 18.4477 6.02119 18.5202C5.94864 18.5928 5.86251 18.6504 5.76772 18.6896C5.67293 18.7289 5.57134 18.749 5.46874 18.749C5.36614 18.749 5.26455 18.7288 5.16977 18.6895C5.07498 18.6503 4.98886 18.5928 4.91631 18.5202C4.84377 18.4477 4.78622 18.3615 4.74696 18.2667C4.7077 18.172 4.6875 18.0704 4.6875 17.9678C4.6875 17.7606 4.76981 17.5619 4.91632 17.4154C5.06283 17.2689 5.26154 17.1866 5.46874 17.1866Z" fill="white"/>
<path d="M44.5312 20.3116C44.6338 20.3116 44.7354 20.3318 44.8302 20.3711C44.925 20.4103 45.0111 20.4678 45.0837 20.5404C45.1562 20.6129 45.2138 20.6991 45.253 20.7939C45.2923 20.8886 45.3125 20.9903 45.3125 21.0928C45.3125 21.1954 45.2923 21.297 45.253 21.3918C45.2138 21.4866 45.1562 21.5727 45.0837 21.6452C45.0111 21.7178 44.925 21.7754 44.8302 21.8146C44.7354 21.8539 44.6338 21.8741 44.5312 21.8741C44.4286 21.8741 44.3271 21.8539 44.2323 21.8146C44.1375 21.7754 44.0514 21.7178 43.9788 21.6452C43.9063 21.5727 43.8487 21.4866 43.8095 21.3918C43.7702 21.297 43.75 21.1954 43.75 21.0928C43.75 20.8856 43.8323 20.6869 43.9788 20.5404C44.1253 20.3939 44.324 20.3116 44.5312 20.3116Z" fill="white"/>
<path d="M41.4062 18.7491C41.5088 18.7491 41.6104 18.7693 41.7052 18.8086C41.8 18.8478 41.8861 18.9053 41.9587 18.9779C42.0312 19.0504 42.0888 19.1366 42.128 19.2314C42.1673 19.3261 42.1875 19.4278 42.1875 19.5303C42.1875 19.6329 42.1673 19.7345 42.128 19.8293C42.0888 19.9241 42.0312 20.0103 41.9587 20.0828C41.8861 20.1554 41.8 20.2129 41.7052 20.2521C41.6104 20.2914 41.5088 20.3116 41.4062 20.3116C41.3036 20.3116 41.2021 20.2914 41.1073 20.2521C41.0125 20.2129 40.9264 20.1553 40.8538 20.0827C40.7813 20.0102 40.7237 19.9241 40.6845 19.8293C40.6452 19.7345 40.625 19.6329 40.625 19.5303C40.625 19.3231 40.7073 19.1244 40.8538 18.9779C41.0003 18.8314 41.199 18.7491 41.4062 18.7491Z" fill="white"/>
<path d="M5.46874 20.3116C5.57134 20.3116 5.67293 20.3318 5.76772 20.3711C5.8625 20.4103 5.94863 20.4678 6.02118 20.5404C6.09372 20.6129 6.15127 20.6991 6.19054 20.7939C6.2298 20.8886 6.25001 20.9903 6.25001 21.0928C6.25001 21.1954 6.22981 21.297 6.19054 21.3918C6.15128 21.4866 6.09373 21.5727 6.02119 21.6452C5.94864 21.7178 5.86251 21.7754 5.76772 21.8146C5.67293 21.8539 5.57134 21.8741 5.46874 21.8741C5.36614 21.8741 5.26455 21.8539 5.16977 21.8146C5.07498 21.7754 4.98886 21.7178 4.91631 21.6452C4.84377 21.5727 4.78622 21.4866 4.74696 21.3918C4.7077 21.297 4.6875 21.1954 4.6875 21.0928C4.6875 20.8856 4.76981 20.6869 4.91632 20.5404C5.06283 20.3939 5.26154 20.3116 5.46874 20.3116Z" fill="white"/>
<path d="M44.5312 17.1866C44.6338 17.1866 44.7354 17.2067 44.8302 17.246C44.925 17.2852 45.0111 17.3428 45.0837 17.4154C45.1562 17.4879 45.2138 17.5741 45.253 17.6689C45.2923 17.7636 45.3125 17.8652 45.3125 17.9678C45.3125 18.0704 45.2923 18.172 45.253 18.2667C45.2138 18.3615 45.1562 18.4477 45.0837 18.5202C45.0111 18.5928 44.925 18.6504 44.8302 18.6896C44.7354 18.7289 44.6338 18.749 44.5312 18.749C44.4286 18.749 44.3271 18.7288 44.2323 18.6895C44.1375 18.6503 44.0514 18.5928 43.9788 18.5202C43.9063 18.4477 43.8487 18.3615 43.8095 18.2667C43.7702 18.172 43.75 18.0704 43.75 17.9678C43.75 17.7606 43.8323 17.5619 43.9788 17.4154C44.1253 17.2689 44.324 17.1866 44.5312 17.1866Z" fill="white"/>
</svg>
