<svg width="150" height="70" viewBox="0 0 150 70" fill="none" xmlns="http://www.w3.org/2000/svg">
<path d="M112.222 12.9413H75.6855V67.6052H112.222V12.9413Z" fill="#FFEEE4"/>
<path d="M3.70996 67.6052L77.1214 67.4485L112.222 13.098L40.9238 12.9413L3.70996 67.6052Z" fill="#AF2E38"/>
<path d="M0 67.6052L73.4114 67.4485L108.496 13.098L37.1977 12.9413L0 67.6052Z" fill="#CD4248"/>
<path d="M28.7461 53.1284L63.2499 53.0501L79.7518 27.4964L46.2319 27.4181L28.7461 53.1284Z" fill="#AF2E38"/>
<path d="M33.5205 50.4963L61.572 50.4337L74.9767 29.6742L47.7318 29.6116L33.5205 50.4963Z" fill="#EFD6CA"/>
<path d="M61.4511 29.6382L59.2998 28.4316L46.1183 50.6017L48.2696 51.8084L61.4511 29.6382Z" fill="#AF2E38"/>
<path d="M69.7939 41.3149V38.9021L38.9034 38.9021V41.3149L69.7939 41.3149Z" fill="#AF2E38"/>
<path d="M80.4922 2.02118H58.0059V23.8616H80.4922V2.02118Z" fill="#AF2E38"/>
<path d="M80.4941 23.8616L85.043 13.0354L91.947 13.0667V2.02118H80.4941V23.8616Z" fill="#992634"/>
<path d="M80.4772 0H57.0391V2.80449H80.4772V0Z" fill="#F0A25C"/>
<path d="M80.4907 2.81323L93.0889 2.81323V0.00873852L80.4907 0.00873852V2.81323Z" fill="#E0904F"/>
<path d="M31.0518 59.9438H45.7147L47.4891 56.2933H32.8262L31.0518 59.9438Z" fill="#AF2E38"/>
<path d="M20.3574 65.0827H35.0204L36.7947 61.4322H22.1318L20.3574 65.0827Z" fill="#AF2E38"/>
<path d="M14.5977 59.9438H29.2606L31.0511 56.2933H16.3882L14.5977 59.9438Z" fill="#AF2E38"/>
<path d="M83.7842 24.5196H98.4471L100.222 20.8691H85.5747L83.7842 24.5196Z" fill="#AF2E38"/>
<path d="M76.7021 29.2512H91.3651L93.1395 25.6006H78.4766L76.7021 29.2512Z" fill="#AF2E38"/>
<path d="M36.7939 21.8405H51.4569L53.2313 18.1899H38.5683L36.7939 21.8405Z" fill="#AF2E38"/>
<path d="M123.191 25.115C123.191 25.115 128.724 25.4597 130.805 23.658C132.886 21.8562 131.676 19.8665 131.676 19.8665C131.676 19.8665 125.869 22.7806 122.772 22.3106C119.659 21.8562 123.191 25.115 123.191 25.115Z" fill="#CC8B6E"/>
<path d="M133.886 18.2057C135.37 17.7043 137.096 17.767 137.903 18.9578C138.355 19.6315 138 20.9945 137.29 21.6056C135.935 22.7806 133.628 24.2377 130.128 24.504C128.837 24.598 126.434 22.1069 128.015 20.9318C130.079 19.4121 131.789 18.9107 133.886 18.2057Z" fill="#D3841C"/>
<path d="M143.885 44.151L130.69 34.7819L130.949 32.8547L143.482 31.899L143.885 44.151Z" fill="#5B5196"/>
<path d="M131.061 66.0541C131.061 66.0541 130.561 66.6494 129.964 67.4642C129.367 68.2789 128.916 69.1093 129.754 69.501C130.593 69.8926 131.593 68.9369 131.932 68.3729C132.255 67.8089 132.626 67.8715 133.077 67.4955C133.529 67.1195 133.287 65.7407 133.287 65.7407L131.061 66.0541Z" fill="#FEB801"/>
<path d="M138.724 39.5291C137.514 41.0802 133.449 66.1012 133.449 66.1012C132.239 67.1352 130.401 66.1012 130.401 66.1012C129.078 53.3478 130.707 34.4058 130.707 34.4058C130.707 34.4058 139.934 41.0802 138.724 39.5291Z" fill="#75BFB1"/>
<path d="M143.208 66.4615C143.208 66.4615 143.708 67.0569 144.305 67.8716C144.902 68.6863 145.353 69.5166 144.514 69.9083C143.676 70.3 142.675 69.3443 142.337 68.7803C142.014 68.2162 141.643 68.2789 141.191 67.9029C140.74 67.5269 140.982 66.1481 140.982 66.1481L143.208 66.4615Z" fill="#FEB801"/>
<path d="M135.562 39.9364C136.772 41.4875 140.837 66.5085 140.837 66.5085C142.047 67.5426 143.886 66.5085 143.886 66.5085C145.208 53.7552 143.773 33.6538 143.773 33.6538C143.773 33.6538 134.336 41.4875 135.562 39.9364Z" fill="#75BFB1"/>
<path d="M132.45 20.0702C133.321 17.2814 137.467 17.1404 140.854 17.6574C143.128 18.0021 144.419 19.5218 144.419 22.248C144.419 24.0341 144.564 31.5701 143.451 33.6852C143.451 33.6852 139.644 36.5211 130.853 33.1055C130.869 33.0899 130.611 26.0238 132.45 20.0702Z" fill="#E79E30"/>
<path d="M140.663 14.0382C140.663 14.0382 137.243 14.7589 137.436 15.0252C137.63 15.2916 137.291 15.84 137.291 16.3726C137.275 16.9523 136.888 17.5477 136.356 18.1274C135.985 18.5348 136.646 19.0205 137.227 19.1301C139.743 19.5845 141.324 18.6758 140.792 17.8924C139.582 16.122 140.663 14.0382 140.663 14.0382Z" fill="#CC8B6E"/>
<path d="M137.27 16.3726C137.286 15.8399 137.609 15.2915 137.415 15.0252C137.222 14.7588 140.916 13.9911 140.916 13.9911C140.916 13.9911 140.351 14.5552 140.254 15.3856C139.174 16.3099 137.98 16.78 137.061 17.1246C137.173 16.8896 137.27 16.5763 137.27 16.3726Z" fill="#C1775D"/>
<path d="M137.206 10.2151C135.867 11.2021 134.706 14.6176 136.125 16.2314C136.9 17.1244 139.706 16.1687 141.029 14.2416C141.206 13.9909 141.626 12.5495 140.916 10.9671C140.61 10.2464 138.609 9.18103 137.206 10.2151Z" fill="#CC8B6E"/>
<path d="M136.552 10.8577C136.858 10.9987 137.229 10.5287 137.584 10.7324C137.875 10.889 137.923 11.1867 138.31 11.2024C138.843 11.2337 140.423 10.1997 139.81 13.2705C139.778 13.4115 139.923 13.5839 139.988 13.7249C140.133 13.9912 139.73 14.2419 139.907 14.4769C139.923 14.5082 140.02 14.4925 140.052 14.5396C140.101 14.6022 140.085 14.7902 140.101 14.8686C140.117 15.1193 140.149 15.3699 140.165 15.6363C140.52 15.6363 140.762 15.3229 140.972 15.0566C141.343 14.5709 141.811 14.1479 142.101 13.6152C142.391 13.0825 142.488 12.3931 142.133 11.8917C142.004 11.7037 141.811 11.5627 141.698 11.3591C141.569 11.1084 141.601 10.8264 141.601 10.5443C141.601 10.137 141.504 9.69829 141.246 9.36928C140.907 8.96192 140.375 8.77393 139.843 8.63293C139.294 8.49192 138.73 8.39791 138.165 8.46058C137.6 8.50758 137.036 8.72692 136.665 9.13427C136.294 9.54163 136.116 10.1527 136.342 10.654C136.374 10.7167 136.407 10.7794 136.455 10.8107C136.504 10.842 136.52 10.8577 136.552 10.8577Z" fill="#282738"/>
<path d="M139.478 14.0383C139.478 14.0383 140.445 13.2079 140.978 13.443C141.51 13.678 140.768 15.1037 139.655 14.9C138.558 14.712 139.187 14.2577 139.478 14.0383Z" fill="#CC8B6E"/>
<path d="M138.953 13.4585C138.985 13.4428 138.921 13.4742 138.905 13.4742C138.856 13.4899 138.824 13.5055 138.776 13.5055C138.598 13.5212 138.518 13.4115 138.469 13.2549C138.437 13.1608 138.292 13.2079 138.324 13.3019C138.421 13.6309 138.743 13.7249 139.05 13.5839C139.131 13.5369 139.034 13.4115 138.953 13.4585Z" fill="#1E100C"/>
<path d="M137.273 12.8631C137.224 12.8944 137.176 12.9414 137.128 12.9571C136.95 13.0354 136.853 12.9258 136.789 12.7691C136.757 12.6751 136.595 12.7221 136.644 12.8161C136.724 13.0041 136.853 13.1608 137.079 13.1294C137.208 13.1138 137.321 13.0354 137.402 12.9571C137.466 12.8944 137.337 12.8004 137.273 12.8631Z" fill="#1E100C"/>
<path d="M136.983 12.064C137.241 12.017 137.45 12.1424 137.547 12.393C137.596 12.5027 137.773 12.4244 137.725 12.3147C137.596 11.9857 137.305 11.8133 136.95 11.8917C136.821 11.9073 136.854 12.0953 136.983 12.064Z" fill="#1E100C"/>
<path d="M138.53 12.7064C138.772 12.5811 139.014 12.6594 139.159 12.8631C139.239 12.9571 139.385 12.8318 139.304 12.7378C139.094 12.4557 138.755 12.3617 138.433 12.5341C138.336 12.5967 138.417 12.7691 138.53 12.7064Z" fill="#1E100C"/>
<path d="M137.871 12.7378C137.904 12.9101 137.904 13.0981 137.839 13.2548C137.742 13.4898 137.452 13.5681 137.275 13.7405C137.033 13.9912 137.226 14.1792 137.549 14.3045C137.629 14.3358 137.678 14.2418 137.597 14.2105C136.855 13.9128 137.791 13.6308 137.952 13.3331C138.049 13.1451 138.049 12.9258 138.017 12.7221C138 12.6594 137.855 12.6594 137.871 12.7378Z" fill="#C1775D"/>
<path d="M138.159 14.6962C138.159 14.6962 138.143 15.3385 137.594 15.2915C137.046 15.2289 137.046 14.6492 137.046 14.6492L138.159 14.6962Z" fill="#FAFFFF"/>
<path d="M139.208 14.6492C139.127 14.8372 138.901 14.9155 138.708 14.8215C138.514 14.7432 138.433 14.5238 138.53 14.3358C138.611 14.1478 138.837 14.0695 139.03 14.1635C139.208 14.2418 139.288 14.4612 139.208 14.6492Z" fill="#C1775D"/>
<path d="M136.177 13.4113C136.354 13.3017 136.596 13.3487 136.709 13.521C136.822 13.6934 136.773 13.9284 136.596 14.0381C136.419 14.1477 136.177 14.1007 136.064 13.9284C135.951 13.756 135.999 13.521 136.177 13.4113Z" fill="#C1775D"/>
<path d="M145.774 24.222C145.952 24.6137 149.484 28.9379 148.71 30.7867C148.307 31.7581 144.935 30.442 144.935 30.442C144.935 30.442 146.145 29.1886 143.08 26.5564C140.548 24.41 145.774 24.222 145.774 24.222Z" fill="#CC8B6E"/>
<path d="M140.951 22.3732C140.354 20.8065 140.387 19.0987 141.742 18.5347C142.516 18.2057 144.081 18.8167 144.806 19.6314C146.194 21.1982 147.904 23.752 148.275 27.2772C148.404 28.5776 145.581 30.489 144.21 28.7029C142.419 26.3684 141.79 24.5823 140.951 22.3732Z" fill="#E79E30"/>
<path d="M135.725 10.795L142.838 12.5654C142.838 12.5654 143.564 9.69823 141.806 8.17849C140.483 7.05043 136.838 5.71869 135.725 10.795Z" fill="#E79E30"/>
<path d="M140.322 11.9386C140.322 11.9386 136.693 11.5783 135.338 10.9672C134.273 10.4659 135.87 10.1212 135.87 10.1212L140.322 11.9386Z" fill="#D3841C"/>
<path d="M150.001 21.6525L110.932 21.5585L90.5586 51.5147L130.773 51.4207L150.001 21.6525Z" fill="#7F3532"/>
<path d="M147.969 21.6525L108.9 21.5585L88.5107 51.5147L128.741 51.4207L147.969 21.6525Z" fill="#CD4248"/>
<path d="M105.529 47.3159H113.562L114.53 45.3104H106.497L105.529 47.3159Z" fill="#AF2E38"/>
<path d="M99.6729 50.1202H107.706L108.674 48.1305H100.641L99.6729 50.1202Z" fill="#AF2E38"/>
<path d="M96.5107 47.3159H104.544L105.528 45.3104H97.4947L96.5107 47.3159Z" fill="#AF2E38"/>
<path d="M134.419 27.9038H142.452L143.436 25.8984H135.403L134.419 27.9038Z" fill="#AF2E38"/>
<path d="M128.563 30.7083H136.597L137.564 28.7185H129.531L128.563 30.7083Z" fill="#AF2E38"/>
<path d="M108.674 26.431H116.707L117.675 24.4412H109.642L108.674 26.431Z" fill="#AF2E38"/>
<path d="M148.439 31.194C146.89 33.0584 140.39 36.5366 140.39 36.5366L140.293 34.7662L145.729 29.7212C145.713 29.7212 149.988 29.3296 148.439 31.194Z" fill="#CC8B6E"/>
<path d="M139.936 34.8445C139.758 34.8289 139.581 34.7506 139.404 34.6879C139.065 34.5626 138.726 34.5625 138.371 34.5625C138.178 34.5625 137.774 34.3432 137.613 34.5312C137.355 34.8446 138.145 35.0326 138.291 35.1422C138.436 35.2362 138.533 35.4086 138.484 35.5653C138.452 35.675 138.355 35.7376 138.258 35.8003C137.968 35.9883 137.645 36.1293 137.323 36.286C137.161 36.3643 137 36.4583 136.855 36.5523C136.742 36.615 136.548 36.662 136.468 36.7717C136.387 36.85 136.387 36.991 136.484 37.0537C136.581 37.1007 136.645 37.038 136.726 37.0067C136.919 36.9283 137.113 36.8657 137.307 36.803C137.355 36.7873 137.532 36.6933 137.581 36.7247C137.791 36.85 137.307 37.1007 137.226 37.1477C137.032 37.2573 136.839 37.3827 136.742 37.5707C136.726 37.6021 136.726 37.6334 136.726 37.649C136.742 37.696 136.807 37.6804 136.855 37.6804C137.129 37.6177 137.355 37.4454 137.629 37.3827C137.678 37.3671 137.726 37.367 137.758 37.3984C137.871 37.5237 137.597 37.7587 137.516 37.837C137.468 37.884 137.403 37.9624 137.436 38.025C137.452 38.072 137.516 38.0877 137.565 38.0877C137.613 38.0877 137.661 38.0721 137.71 38.0407C137.839 37.9781 137.984 37.9311 138.113 37.8527C138.178 37.8214 138.339 37.6961 138.403 37.7587C138.42 37.7744 138.42 37.7901 138.42 37.8057C138.42 37.8684 138.371 37.931 138.323 37.978C138.291 38.025 138.258 38.1034 138.291 38.1661C138.339 38.2444 138.436 38.2287 138.516 38.1974C138.807 38.1034 139.065 37.9154 139.323 37.743C139.597 37.555 139.839 37.367 140.097 37.1634C140.404 36.9127 140.694 36.6307 140.984 36.3487C141.21 36.1293 141.517 35.9413 141.694 35.6906C141.823 35.5026 141.823 35.2519 141.743 35.0482C141.662 34.8446 141.533 34.6722 141.42 34.4842C141.355 34.3589 141.307 34.2649 141.178 34.2492C141.017 34.2336 140.226 34.7976 140.129 34.8132C140.049 34.8446 140 34.8445 139.936 34.8445Z" fill="#CC8B6E"/>
</svg>
