<svg width="60" height="61" viewBox="0 0 60 61" fill="none" xmlns="http://www.w3.org/2000/svg">
<g clip-path="url(#clip0_3256_7037)">
<path d="M57.8743 47.3125C57.2258 43.4247 54.4999 40.2346 50.7607 38.9879L42.4574 36.2205V34.9863H40.5276V36.674L33.773 49.3398L27.0184 36.675V34.9863H25.0885V37.1574L32.808 51.6315V53.3202H21.2287V55.2501H32.808V58.1449H18.4623L19.2323 51.9838C20.4761 51.1655 21.2287 49.7847 21.2287 48.2678V47.5306H19.2989V48.2678C19.2989 49.2308 18.7633 50.0973 17.9026 50.5277L17.4404 50.7583L16.5169 58.1449H9.82315L10.9222 51.5486L9.01839 51.2321L7.54492 60.0748H60.0001L57.8743 47.3125ZM34.7379 58.1449V55.2501H46.3172V53.3202H34.7379V51.6315L41.9605 38.0896L46.3172 39.5408V48.2668C46.3172 49.7837 47.0699 51.1645 48.3137 51.9838L49.0837 58.1449H34.7379ZM51.029 58.1449L50.1055 50.7583L49.6433 50.5277C48.7826 50.0963 48.2471 49.2308 48.2471 48.2678V40.1845L50.1499 40.8184C53.2098 41.8393 55.4397 44.4495 55.9705 47.6299L57.7218 58.1449H51.029Z" fill="#E63A27"/>
<path d="M17.3689 21.4767C17.3689 23.9528 19.2505 25.9753 21.6551 26.2474C22.1473 27.9409 23.0562 29.4935 24.3377 30.7749L28.1 34.5372C29.0109 35.4481 30.2228 35.9508 31.512 35.9508H36.0337C37.3229 35.9508 38.5348 35.4481 39.4457 34.5372L43.208 30.7749C44.4895 29.4935 45.3975 27.9409 45.8906 26.2474C48.2952 25.9753 50.1768 23.9528 50.1768 21.4767C50.1768 20.3864 49.7996 19.3905 49.1868 18.5819H51.1418V12.7923H48.109C47.3419 7.09623 43.1839 2.33039 37.6326 0.792273V0.248047H29.9131V0.792273C24.3628 2.33039 20.2048 7.09623 19.4367 12.7923H16.4039V18.5819H18.3589C17.7462 19.3905 17.3689 20.3864 17.3689 21.4767ZM19.2988 21.4767C19.2988 20.2204 20.1083 19.159 21.2286 18.7595V23.2686C21.2286 23.5842 21.247 23.8968 21.274 24.2075C20.1305 23.8215 19.2988 22.7495 19.2988 21.4767ZM44.3872 23.2686C44.3872 25.5893 43.4831 27.7691 41.8436 29.4105L38.0813 33.1728C37.5342 33.7199 36.8076 34.021 36.0337 34.021H31.512C30.7381 34.021 30.0106 33.7199 29.4644 33.1728L25.7021 29.4105C24.0627 27.7701 23.1585 25.5893 23.1585 23.2696V18.5819H44.3872V23.2686ZM46.2717 24.2075C46.2988 23.8968 46.3171 23.5851 46.3171 23.2686V18.7595C47.4374 19.159 48.247 20.2204 48.247 21.4767C48.247 22.7495 47.4152 23.8215 46.2717 24.2075ZM29.9131 2.80128V10.8624H31.843V2.17793H35.7027V10.8624H37.6326V2.80128C42.1042 4.25159 45.4429 8.14609 46.1685 12.7923H21.3772C22.1038 8.14512 25.4416 4.25159 29.9131 2.80128ZM18.3338 16.652V14.7222H49.2119V16.652H18.3338Z" fill="#E63A27"/>
<path d="M41.4924 8.93262H39.5625V10.8625H41.4924V8.93262Z" fill="#E63A27"/>
<path d="M27.9832 8.93262H26.0533V10.8625H27.9832V8.93262Z" fill="#E63A27"/>
<path d="M8.85913 49.4603H14.3004L14.7993 46.9727C15.1187 46.8608 15.4313 46.7315 15.7353 46.5877L17.8456 47.9936L21.6928 44.1464L20.2869 42.0361C20.4307 41.7331 20.56 41.4195 20.6719 41.1001L23.1586 40.6012V35.1599L20.671 34.661C20.4905 34.1506 20.2705 33.6585 20.011 33.1934L18.3242 34.1322C18.607 34.6388 18.8328 35.1879 18.9958 35.7611L19.1579 36.3265L21.2287 36.7414V39.0197L19.1579 39.4346L18.9958 40.0001C18.8328 40.5742 18.607 41.1223 18.3242 41.6289L18.0376 42.1432L19.2072 43.8974L17.5967 45.5079L15.8424 44.3384L15.3281 44.625C14.8215 44.9077 14.2724 45.1335 13.6993 45.2966L13.1338 45.4578L12.7189 47.5304H10.4407L10.0257 45.4597L9.46029 45.2985C8.88615 45.1355 8.33807 44.9097 7.83147 44.6269L7.31716 44.3404L5.5629 45.5099L3.39275 43.3407L2.02832 44.7051L5.31587 47.9936L7.4262 46.5877C7.72919 46.7315 8.04279 46.8608 8.36219 46.9727L8.85913 49.4603Z" fill="#E63A27"/>
<path d="M3.14764 42.5678L4.83435 41.6289C4.55162 41.1223 4.32583 40.5732 4.16275 40.0001L4.00064 39.4346L1.92988 39.0206V36.7424L4.00064 36.3275L4.16275 35.762C4.32583 35.1879 4.55162 34.6398 4.83435 34.1332L5.12094 33.6189L3.95143 31.8646L5.56192 30.2542L7.31618 31.4237L7.83049 31.1371C8.33709 30.8543 8.88614 30.6286 9.45931 30.4655L10.0248 30.3043L10.4397 28.2316H12.7179L13.1328 30.3024L13.6983 30.4635C14.2724 30.6266 14.8205 30.8524 15.3271 31.1351L15.8414 31.4217L17.5957 30.2522L19.7658 32.4214L21.1303 31.057L17.8427 27.7685L15.7324 29.1744C15.4294 29.0306 15.1158 28.9013 14.7964 28.7894L14.2995 26.3018H8.85815L8.35928 28.7894C8.03988 28.9013 7.72724 29.0306 7.42329 29.1744L5.31296 27.7685L1.46574 31.6157L2.87166 33.726C2.72789 34.029 2.59858 34.3426 2.48665 34.662L0 35.1609V40.6022L2.48762 41.101C2.66806 41.6105 2.88807 42.1027 3.14764 42.5678Z" fill="#E63A27"/>
<path d="M11.5793 33.0557C8.919 33.0557 6.75464 35.22 6.75464 37.8804C6.75464 40.5407 8.919 42.7051 11.5793 42.7051C14.2397 42.7051 16.404 40.5407 16.404 37.8804C16.404 35.22 14.2397 33.0557 11.5793 33.0557ZM11.5793 40.7752C9.98333 40.7752 8.68452 39.4764 8.68452 37.8804C8.68452 36.2844 9.98333 34.9855 11.5793 34.9855C13.1754 34.9855 14.4742 36.2844 14.4742 37.8804C14.4742 39.4764 13.1754 40.7752 11.5793 40.7752Z" fill="#E63A27"/>
</g>
<defs>
<clipPath id="clip0_3256_7037">
<rect width="60" height="60" fill="white" transform="translate(0 0.161133)"/>
</clipPath>
</defs>
</svg>
