<svg width="172" height="70" viewBox="0 0 172 70" fill="none" xmlns="http://www.w3.org/2000/svg">
<path d="M84.5046 9.47498H0L3.10436 14.437H87.7613L84.5046 9.47498Z" fill="#F0A25C"/>
<path d="M93.0949 22.4908H8.15234L11.2377 27.4528H96.3707L93.0949 22.4908Z" fill="#F0A25C"/>
<path d="M103.835 38.7699H18.3398L21.4253 43.7319H107.111L103.835 38.7699Z" fill="#F0A25C"/>
<path d="M113.511 53.4271H27.502L30.6064 58.3891H116.768L113.511 53.4271Z" fill="#F0A25C"/>
<path d="M139.737 9.47498H55.2324L58.3368 14.437H142.994L139.737 9.47498Z" fill="#F0A25C"/>
<path d="M148.327 22.4908H63.3848L66.4891 27.4528H151.603L148.327 22.4908Z" fill="#F0A25C"/>
<path d="M159.067 38.7699H73.5723L76.6577 43.7319H162.343L159.067 38.7699Z" fill="#F0A25C"/>
<path d="M168.744 53.4271H82.7344L85.8388 58.3891H172L168.744 53.4271Z" fill="#F0A25C"/>
<path d="M155.886 66.6527L69.1914 66.4809L27.7676 0.276247L111.948 0.0853882L155.886 66.6527Z" fill="#992634"/>
<path d="M160.267 66.6527L73.5908 66.4809L32.167 0.276247L116.329 0.0853882L160.267 66.6527Z" fill="#CD4248"/>
<path d="M123.605 57.3394H106.292L104.197 52.8926H121.51L123.605 57.3394Z" fill="#AF2E38"/>
<path d="M136.232 63.5801H118.92L116.825 59.1525H134.137L136.232 63.5801Z" fill="#AF2E38"/>
<path d="M143.013 57.3394H125.7L123.605 52.8926H140.918L143.013 57.3394Z" fill="#AF2E38"/>
<path d="M61.3262 14.1699H44.014L41.9189 9.72314H59.2312L61.3262 14.1699Z" fill="#AF2E38"/>
<path d="M73.9532 20.4297H56.66L54.5459 15.983H71.8582L73.9532 20.4297Z" fill="#AF2E38"/>
<path d="M116.825 10.9256H99.513L97.418 6.47882H114.73L116.825 10.9256Z" fill="#AF2E38"/>
<path d="M101.226 13.3302C104.521 16.0974 98.4839 23.1397 98.4839 23.1397L94.4463 20.8686C94.4463 20.8686 98.0078 10.6392 101.226 13.3302Z" fill="#D3841C"/>
<path d="M111.529 40.9265L96.5977 30.3727L96.9023 28.2161L111.091 27.1283L111.529 40.9265Z" fill="#75BFB1"/>
<path d="M98.6333 15.1241C99.5856 12.0324 104.214 11.8797 107.985 12.4522C110.518 12.8339 112.156 13.6546 112.441 16.8417C112.613 18.8647 112.06 27.72 110.822 30.0674C110.822 30.0674 106.499 32.4911 96.8621 29.5139C96.8621 29.533 96.5764 21.7274 98.6333 15.1241Z" fill="#E79E30"/>
<path d="M111.396 30.6399C111.396 30.6399 102.236 32.4147 96.5029 29.6856L96.9029 28.2161C96.9029 28.2161 103.435 30.6017 111.263 28.9604L111.396 30.6399Z" fill="#75BFB1"/>
<path d="M107.583 8.36816C107.583 8.36816 103.698 9.2079 103.927 9.51326C104.136 9.8377 103.774 10.4675 103.755 11.0973C103.736 11.7653 103.298 12.4714 102.708 13.1584C102.289 13.6356 103.032 14.2081 103.698 14.3226C106.536 14.857 108.345 13.7882 107.736 12.8721C106.365 10.7919 107.583 8.36816 107.583 8.36816Z" fill="#FFBE9E"/>
<path d="M103.758 11.0972C103.777 10.4865 104.139 9.8376 103.93 9.51317C103.72 9.18873 107.891 8.29175 107.891 8.29175C107.891 8.29175 107.263 8.94064 107.148 9.91396C105.987 11.498 104.33 11.9751 103.282 12.3759C103.549 12.0323 103.739 11.3262 103.758 11.0972Z" fill="#FF9C81"/>
<path d="M103.687 3.88319C102.164 5.04736 100.869 9.03606 102.449 10.9254C103.325 11.9751 106.525 10.8682 108.011 8.59711C108.201 8.31084 108.677 6.61228 107.877 4.76107C107.535 3.92134 105.268 2.68086 103.687 3.88319Z" fill="#FFBE9E"/>
<path d="M101.936 7.03208C101.936 7.28018 102.279 4.62741 103.764 4.43656C104.374 4.36023 104.24 5.00912 104.945 5.04729C105.555 5.08546 107.345 3.8831 106.659 7.47102C106.621 7.64278 106.793 7.85274 106.869 8.00542C106.964 8.19626 106.659 8.63519 106.659 8.84512C106.659 9.05505 107.288 8.42527 107.269 8.61611C107.25 8.92147 106.716 9.79938 107.154 9.91388C107.364 9.97114 107.631 9.62761 107.802 9.49402C108.259 9.16958 108.754 8.92147 109.135 8.50161C109.554 8.02449 109.783 7.41378 109.897 6.80307C110.011 6.19236 109.992 5.54347 109.745 4.97093C109.478 4.37931 108.964 3.9022 108.354 3.69226C107.992 3.57776 107.573 3.55866 107.231 3.3869C106.926 3.23423 106.583 3.19607 106.278 3.04339C106.031 2.92888 105.935 2.77621 105.783 2.56628C105.44 2.12733 104.869 1.84107 104.298 1.86015C103.726 1.87924 103.174 2.24184 102.983 2.77621C102.869 3.08156 102.831 3.46324 102.545 3.59683C102.45 3.65409 102.317 3.65411 102.222 3.71137C102.126 3.76862 102.069 3.86402 102.012 3.95945C101.765 4.47473 101.746 5.10453 101.879 5.65798C101.936 5.887 102.012 6.11602 101.993 6.34503C101.974 6.59313 101.917 6.80306 101.936 7.03208Z" fill="#282738"/>
<path d="M106.272 8.36817C106.272 8.36817 107.377 7.39485 107.986 7.68112C108.596 7.96739 107.739 9.62777 106.482 9.39875C105.225 9.15065 105.929 8.61627 106.272 8.36817Z" fill="#FFBE9E"/>
<path d="M97.0393 65.5648C97.0393 65.5648 96.4679 66.2328 95.8013 67.1488C95.1348 68.0649 94.6205 69.0001 95.5728 69.439C96.5251 69.878 97.6678 68.8092 98.0297 68.1794C98.3916 67.5496 98.8296 67.6259 99.3248 67.187C99.839 66.7671 99.5724 65.2022 99.5724 65.2022L97.0393 65.5648Z" fill="#E79E30"/>
<path d="M105.699 35.7164C104.328 37.4722 99.738 65.6221 99.738 65.6221C98.3668 66.7863 96.2908 65.6221 96.2908 65.6221C94.8053 51.2705 96.6527 29.9529 96.6527 29.9529C96.6527 29.9529 107.071 37.4722 105.699 35.7164Z" fill="#75BFB1"/>
<path d="M110.767 66.0229C110.767 66.0229 111.339 66.6908 112.005 67.6069C112.672 68.523 113.186 69.4581 112.234 69.8971C111.281 70.336 110.139 69.2673 109.777 68.6375C109.415 68.0077 108.977 68.084 108.482 67.6451C107.968 67.2252 108.234 65.6603 108.234 65.6603L110.767 66.0229Z" fill="#E79E30"/>
<path d="M102.122 36.1936C103.493 37.9494 108.083 66.0993 108.083 66.0993C109.454 67.2635 111.53 66.0993 111.53 66.0993C113.016 51.7476 111.416 30.6591 111.416 30.6591C111.416 30.6591 100.732 37.9303 102.122 36.1936Z" fill="#75BFB1"/>
<path d="M105.11 7.9292C105.129 7.91012 105.071 7.94827 105.071 7.94827C105.033 7.96736 104.976 7.98645 104.919 7.98645C104.729 8.00554 104.633 7.87194 104.595 7.71927C104.576 7.62384 104.405 7.6811 104.443 7.77652C104.538 8.13913 104.881 8.25364 105.205 8.08188C105.3 8.00554 105.205 7.87195 105.11 7.9292Z" fill="#201714"/>
<path d="M103.321 7.28024C103.283 7.31841 103.225 7.35659 103.168 7.37567C102.978 7.45201 102.883 7.3375 102.806 7.16574C102.768 7.07032 102.597 7.12757 102.654 7.22299C102.73 7.41384 102.883 7.60467 103.111 7.5665C103.245 7.54742 103.359 7.4711 103.454 7.37567C103.53 7.31842 103.397 7.2039 103.321 7.28024Z" fill="#201714"/>
<path d="M103.036 6.40249C103.321 6.34523 103.531 6.49793 103.645 6.74603C103.683 6.87962 103.874 6.78418 103.836 6.66967C103.702 6.32615 103.379 6.1353 103.017 6.19256C102.864 6.23073 102.902 6.44066 103.036 6.40249Z" fill="#4D2F20"/>
<path d="M104.671 7.10863C104.918 6.97504 105.185 7.05137 105.337 7.28038C105.413 7.39489 105.566 7.26128 105.489 7.14678C105.261 6.84142 104.918 6.74601 104.575 6.91777C104.461 6.97502 104.537 7.16588 104.671 7.10863Z" fill="#4D2F20"/>
<path d="M103.968 7.1277C104.006 7.31855 104.006 7.52848 103.93 7.70025C103.816 7.94835 103.511 8.04377 103.321 8.23461C103.073 8.5018 103.263 8.71172 103.606 8.84531C103.682 8.88348 103.74 8.76897 103.663 8.73081C102.882 8.40637 103.873 8.10101 104.025 7.77657C104.12 7.56664 104.139 7.31856 104.082 7.10863C104.101 7.05137 103.949 7.05136 103.968 7.1277Z" fill="#7C4930"/>
<path d="M104.274 9.28433C104.274 9.28433 104.255 9.99046 103.664 9.9332C103.093 9.87595 103.093 9.24615 103.093 9.24615L104.274 9.28433Z" fill="#FAFFFF"/>
<path d="M105.378 9.20785C105.283 9.3987 105.055 9.49413 104.845 9.39871C104.655 9.30328 104.559 9.07427 104.655 8.86434C104.75 8.67349 104.978 8.57806 105.188 8.67348C105.378 8.78799 105.474 9.017 105.378 9.20785Z" fill="#FF9C81"/>
<path d="M102.178 7.87198C102.369 7.75747 102.616 7.81474 102.731 8.00559C102.845 8.19643 102.788 8.44452 102.597 8.55903C102.407 8.67354 102.159 8.61627 102.045 8.42542C101.931 8.23458 101.988 7.98649 102.178 7.87198Z" fill="#FF9C81"/>
<path d="M101.396 4.79928L109.796 6.97494C109.796 6.97494 110.71 3.23434 108.634 1.30679C107.11 -0.124563 102.806 -1.80401 101.396 4.79928Z" fill="#E79E30"/>
<path d="M106.845 6.21163C106.845 6.21163 102.541 5.81083 100.941 5.02836C99.6839 4.39857 101.588 3.92145 101.588 3.92145L106.845 6.21163Z" fill="#D3841C"/>
<path d="M98.9009 21.3076H91.6064L96.1774 28.4071H103.053L98.9009 21.3076Z" fill="#8FA1D3"/>
<path d="M93.6453 24.1511C93.8357 24.0556 94.1024 23.6167 94.3499 23.7312C94.7499 23.903 94.1214 24.5137 94.0262 24.6854C93.95 24.8572 93.931 25.0671 94.0643 25.2007C94.1595 25.2771 94.2738 25.2961 94.4071 25.3152C94.788 25.3534 95.1689 25.3152 95.5498 25.3152C95.7403 25.3152 95.9498 25.3152 96.1402 25.3343C96.2926 25.3343 96.4831 25.2961 96.6354 25.3343C96.7497 25.3725 96.8259 25.5061 96.7688 25.6206C96.7116 25.716 96.5973 25.6969 96.5021 25.6969C96.2926 25.7351 96.0641 25.7542 95.8546 25.7923C95.7974 25.7923 95.5879 25.8114 95.5498 25.8496C95.4165 26.0786 96.026 26.0786 96.1212 26.0786C96.3498 26.0786 96.5973 26.0977 96.8068 26.2504C96.8259 26.2695 96.864 26.2885 96.864 26.3267C96.864 26.384 96.8068 26.4031 96.7497 26.4221C96.464 26.4985 96.1402 26.4603 95.8546 26.5366C95.8165 26.5557 95.7593 26.5748 95.7403 26.613C95.7022 26.8038 96.0831 26.8802 96.2164 26.9183C96.2926 26.9374 96.3878 26.9756 96.4069 27.0519C96.4069 27.1092 96.3688 27.1473 96.3307 27.1855C96.2736 27.2046 96.2355 27.2046 96.1783 27.2237C96.026 27.2428 95.8546 27.2618 95.7022 27.2428C95.626 27.2428 95.3975 27.2046 95.3784 27.3C95.3784 27.3191 95.3784 27.3382 95.3975 27.3573C95.4356 27.4146 95.5117 27.4527 95.5879 27.4718C95.6641 27.5099 95.7212 27.5672 95.7212 27.6435C95.7212 27.7389 95.607 27.7772 95.5117 27.7962C95.188 27.8535 94.8261 27.7962 94.5023 27.7771C94.1595 27.739 93.7405 27.6054 93.4358 27.4336C91.6646 26.4221 93.3215 24.3419 93.6453 24.1511Z" fill="#FFBE9E"/>
<path d="M110.975 27.0522C110.975 27.0522 113.451 22.0711 112.575 19.3229C111.699 16.5747 109.337 16.7464 109.337 16.7464C109.337 16.7464 109.794 23.4833 108.156 26.1552C106.537 28.8271 110.975 27.0522 110.975 27.0522Z" fill="#FFBE9E"/>
<path d="M110.026 13.0059C114.292 13.483 113.168 22.6818 113.168 22.6818L108.559 23.0253C108.559 23.0253 105.874 12.5478 110.026 13.0059Z" fill="#D3841C"/>
<path d="M110.084 27.6437C107.856 28.2544 101.78 27.6437 101.78 27.6437L102.828 26.1742L110.313 24.6475C110.294 24.6475 112.351 27.0139 110.084 27.6437Z" fill="#FFBE9E"/>
<path d="M103.017 25.9452C102.864 25.8116 102.807 25.5826 102.693 25.4108C102.483 25.0864 102.179 24.8574 101.893 24.6284C101.722 24.4948 101.531 24.0367 101.265 24.1131C100.826 24.2276 101.379 24.9146 101.455 25.1055C101.512 25.2772 101.493 25.5063 101.341 25.6017C101.245 25.678 101.112 25.678 100.998 25.659C100.617 25.6399 100.236 25.5444 99.8552 25.4872C99.6647 25.449 99.4552 25.4299 99.2648 25.4108C99.1124 25.3918 98.9219 25.3154 98.7886 25.3345C98.6744 25.3536 98.5601 25.4681 98.6172 25.6017C98.6553 25.7162 98.7695 25.6971 98.8648 25.7162C99.0743 25.7735 99.2838 25.8498 99.4933 25.907C99.5314 25.9261 99.7599 25.9643 99.779 26.0025C99.8742 26.2506 99.2838 26.1552 99.1886 26.1361C98.96 26.117 98.7124 26.0979 98.4839 26.2124C98.4648 26.2315 98.4268 26.2506 98.4268 26.2887C98.4268 26.346 98.4648 26.3842 98.522 26.4033C98.8076 26.5178 99.1124 26.5177 99.398 26.6513C99.4361 26.6704 99.4933 26.7086 99.4933 26.7468C99.5123 26.9376 99.1124 26.9567 98.9791 26.9758C98.9029 26.9949 98.7886 27.014 98.7696 27.0903C98.7505 27.1476 98.7886 27.2048 98.8267 27.2239C98.8648 27.2621 98.922 27.2621 98.9791 27.2811C99.1315 27.3193 99.3029 27.3575 99.4552 27.3766C99.5314 27.3766 99.7599 27.3766 99.779 27.4911C99.779 27.5102 99.7789 27.5292 99.7599 27.5483C99.7028 27.6056 99.6266 27.6246 99.5695 27.6437C99.4933 27.6628 99.4171 27.7201 99.4171 27.7773C99.3981 27.8728 99.5123 27.93 99.5885 27.9682C99.9123 28.0827 100.255 28.0827 100.579 28.0827C100.922 28.1018 101.284 28.1018 101.626 28.0636C102.103 28.0445 102.56 27.9873 103.017 27.9109C103.417 27.8346 103.874 27.7392 104.14 27.3956C104.217 27.3002 104.274 27.1857 104.331 27.0903C104.407 26.9567 104.464 26.804 104.502 26.6513C104.521 26.4987 104.502 26.3269 104.407 26.1933C104.388 26.1742 104.388 26.1551 104.369 26.1551C104.35 26.1361 104.312 26.1361 104.293 26.1551C104.083 26.1742 103.874 26.2124 103.664 26.1933C103.436 26.1552 103.226 26.0979 103.017 25.9452Z" fill="#FFBE9E"/>
</svg>
