<svg width="70" height="70" viewBox="0 0 70 70" fill="none" xmlns="http://www.w3.org/2000/svg">
<g clip-path="url(#clip0_2824_11296)">
<path fill-rule="evenodd" clip-rule="evenodd" d="M33.8613 45.4871C33.2759 45.493 32.7102 45.2766 32.2781 44.8816L19.4739 33.0726C19.0268 32.6591 18.3367 32.6591 17.8896 33.0726L5.1776 44.8C4.33303 45.6145 3.02621 45.7069 2.07543 45.0193C1.53059 44.5996 1.19866 43.9609 1.16829 43.2738C1.13793 42.5867 1.41223 41.9213 1.91793 41.4551L17.0986 27.4551C17.9927 26.6287 19.372 26.6287 20.2661 27.4551L35.3348 41.3501C36.2939 42.1938 36.4376 43.6355 35.6638 44.6518C35.216 45.183 34.5561 45.4889 33.8613 45.4871Z" fill="#A0522D"/>
<path fill-rule="evenodd" clip-rule="evenodd" d="M33.8333 66.5V55.9078C33.8334 55.2735 33.5752 54.6665 33.1182 54.2266L19.635 41.2533C19.065 40.6936 18.1517 40.6936 17.5817 41.2533L4.21517 54.1216C3.75818 54.5615 3.49997 55.1685 3.5 55.8028V66.5C3.5 67.7886 4.54467 68.8333 5.83333 68.8333H31.5C32.7887 68.8333 33.8333 67.7886 33.8333 66.5Z" fill="#FF9801"/>
<path fill-rule="evenodd" clip-rule="evenodd" d="M33.1182 54.2266L19.6351 41.2533C19.0651 40.6936 18.1517 40.6936 17.5817 41.2533L16.8584 41.9533L29.6182 54.2266C30.0752 54.6665 30.3334 55.2735 30.3334 55.9078V66.5C30.3334 67.7886 29.2887 68.8333 28.0001 68.8333H31.5001C32.7887 68.8333 33.8334 67.7886 33.8334 66.5V55.9078C33.8334 55.2735 33.5752 54.6665 33.1182 54.2266Z" fill="#F57C00"/>
<path fill-rule="evenodd" clip-rule="evenodd" d="M15.1667 57.1666H22.1667C22.811 57.1666 23.3333 57.689 23.3333 58.3333V68.8333H14V58.3333C14 57.689 14.5223 57.1666 15.1667 57.1666Z" fill="#A0522D"/>
<path fill-rule="evenodd" clip-rule="evenodd" d="M26.833 33.5066V30.3333C26.833 29.689 27.3553 29.1666 27.9997 29.1666H30.333C30.9773 29.1666 31.4997 29.689 31.4997 30.3333V37.8116L26.833 33.5066Z" fill="#F57C00"/>
<path fill-rule="evenodd" clip-rule="evenodd" d="M44.3333 61.8333H63C66.2217 61.8333 68.8333 64.4449 68.8333 67.6666C68.8333 68.3109 68.311 68.8333 67.6667 68.8333H39.6667C39.0223 68.8333 38.5 68.3109 38.5 67.6666C38.5 64.4449 41.1117 61.8333 44.3333 61.8333Z" fill="#9E9E9E"/>
<path fill-rule="evenodd" clip-rule="evenodd" d="M63 61.8333H59.5C62.7217 61.8333 65.3333 64.4449 65.3333 67.6666C65.3333 68.3109 64.811 68.8333 64.1667 68.8333H67.6667C68.311 68.8333 68.8333 68.3109 68.8333 67.6666C68.8333 64.4449 66.2217 61.8333 63 61.8333Z" fill="#707070"/>
<path fill-rule="evenodd" clip-rule="evenodd" d="M57.167 59.4999V61.8333H50.167V54.8333L57.167 59.4999Z" fill="#FF9801"/>
<path fill-rule="evenodd" clip-rule="evenodd" d="M57.167 52.4999V59.4999L50.167 54.8333V47.8333L57.167 52.4999Z" fill="#F57C00"/>
<path fill-rule="evenodd" clip-rule="evenodd" d="M57.167 45.4999V52.4999L50.167 47.8333V40.8333L57.167 45.4999Z" fill="#FF9801"/>
<path fill-rule="evenodd" clip-rule="evenodd" d="M57.167 38.4999V45.4999L50.167 40.8333V33.8333L57.167 38.4999Z" fill="#F57C00"/>
<path fill-rule="evenodd" clip-rule="evenodd" d="M57.167 31.4999V38.4999L50.167 33.8333V26.8333L57.167 31.4999Z" fill="#FF9801"/>
<path fill-rule="evenodd" clip-rule="evenodd" d="M57.167 23.3333V31.4999L50.167 26.8333V23.3333H57.167Z" fill="#F57C00"/>
<path fill-rule="evenodd" clip-rule="evenodd" d="M60.667 12.8333V19.8333C60.667 21.7662 59.1 23.3333 57.167 23.3333H45.5003C44.2133 23.3294 43.1708 22.287 43.167 20.9999V18.6666H50.167C51.4541 18.6627 52.4965 17.6203 52.5003 16.3333V12.8333H60.667Z" fill="#FFDC00"/>
<path fill-rule="evenodd" clip-rule="evenodd" d="M57.167 12.8333V19.8333C57.167 21.7662 55.6 23.3333 53.667 23.3333H57.167C59.1 23.3333 60.667 21.7662 60.667 19.8333V12.8333H57.167Z" fill="#FEC108"/>
<path fill-rule="evenodd" clip-rule="evenodd" d="M52.5003 12.8333V16.3333C52.4965 17.6203 51.4541 18.6627 50.167 18.6666H43.167V12.8333H52.5003Z" fill="#00BCD4"/>
<path d="M67.667 8.16663H9.33366C8.68933 8.16663 8.16699 8.68896 8.16699 9.33329V11.6666C8.16699 12.311 8.68933 12.8333 9.33366 12.8333H67.667C68.3113 12.8333 68.8337 12.311 68.8337 11.6666V9.33329C68.8337 8.68896 68.3113 8.16663 67.667 8.16663Z" fill="#FF9801"/>
<path fill-rule="evenodd" clip-rule="evenodd" d="M67.667 8.16663H64.167C64.8113 8.16663 65.3337 8.68896 65.3337 9.33329V11.6666C65.3337 12.311 64.8113 12.8333 64.167 12.8333H67.667C68.3113 12.8333 68.8337 12.311 68.8337 11.6666V9.33329C68.8337 8.68896 68.3113 8.16663 67.667 8.16663Z" fill="#F57C00"/>
<path fill-rule="evenodd" clip-rule="evenodd" d="M56.0003 1.16663H53.3415C52.8391 1.16651 52.3931 1.48799 52.2343 1.96463L50.167 8.16663H57.167V2.33329C57.167 1.68896 56.6447 1.16663 56.0003 1.16663Z" fill="#FEC108"/>
<path d="M14.0007 70H31.5007C33.4336 70 35.0007 68.433 35.0007 66.5V55.9079C34.9987 54.9565 34.6115 54.0466 33.9273 53.3855L20.4442 40.4134C19.4204 39.4237 17.7964 39.4237 16.7727 40.4134L3.40615 53.2805C2.72266 53.9419 2.33591 54.8518 2.33398 55.8029V66.5C2.33398 68.433 3.90099 70 5.83398 70H14.0007ZM15.1673 67.6667V58.3334H22.1673V67.6667H15.1673ZM4.66732 66.5V55.8029C4.66833 55.4859 4.79702 55.1826 5.02432 54.9617L18.3908 42.0945C18.4469 42.0335 18.5261 41.9987 18.609 41.9987C18.6919 41.9987 18.771 42.0335 18.8272 42.0945L32.3092 55.0667C32.5372 55.2877 32.6663 55.5915 32.6673 55.909V66.5C32.6673 67.1444 32.145 67.6667 31.5007 67.6667H24.5007V58.3334C24.5007 57.0447 23.456 56 22.1673 56H15.1673C13.8787 56 12.834 57.0447 12.834 58.3334V67.6667H5.83398C5.18965 67.6667 4.66732 67.1444 4.66732 66.5Z" fill="black"/>
<path d="M67.6668 7H58.3334V2.33334C58.3334 1.04467 57.2887 2.33082e-06 56.0001 2.33082e-06H53.3413C52.336 -0.00141229 51.4428 0.641215 51.1246 1.59484L49.3256 7H9.33342C8.04475 7 7.00008 8.04467 7.00008 9.33334V11.6667C7.00008 12.9553 8.04475 14 9.33342 14H17.5001V25.8825C17.0585 26.0364 16.6528 26.2785 16.3078 26.5942L1.12708 40.6C0.370086 41.2987 -0.0406454 42.2955 0.0043171 43.3247C0.0492796 44.3539 0.545369 45.311 1.36042 45.941C2.76361 46.9742 4.70496 46.8559 5.97225 45.6598L18.6889 33.936L31.4873 45.7392C32.1318 46.3309 32.9759 46.6576 33.8509 46.6538H33.8649C34.906 46.6565 35.8941 46.1955 36.5611 45.3962C37.7392 43.9061 37.5482 41.7553 36.1259 40.4962L32.6668 37.3018V30.3333C32.6668 29.0447 31.6221 28 30.3334 28H28.0001C26.7114 28 25.6668 29.0447 25.6668 30.3333V30.8455L21.0573 26.6C20.7042 26.2754 20.2874 26.0279 19.8334 25.8732V14H42.0001V21C42.0001 22.933 43.5671 24.5 45.5001 24.5H49.0001V60.6667H44.3334C40.469 60.6705 37.3373 63.8023 37.3334 67.6667C37.3334 68.9553 38.3781 70 39.6668 70H67.6668C68.9554 70 70.0001 68.9553 70.0001 67.6667C69.9962 63.8023 66.8645 60.6705 63.0001 60.6667H58.3334V24.3343C60.3876 23.804 61.8255 21.9548 61.8334 19.8333V14H67.6668C68.9554 14 70.0001 12.9553 70.0001 11.6667V9.33334C70.0001 8.04467 68.9554 7 67.6668 7ZM28.0001 30.3333H30.3334V35.1493L28.0001 32.998V30.3333ZM34.5439 42.2077C35.0487 42.6305 35.1447 43.3699 34.7644 43.9075C34.5389 44.1741 34.2059 44.3256 33.8568 44.3205C33.5681 44.3232 33.289 44.2169 33.0751 44.023L20.2651 32.214C19.3687 31.3957 17.9963 31.3957 17.0999 32.214L4.38792 43.9378C3.96288 44.3591 3.3015 44.4266 2.80008 44.1C2.52538 43.8912 2.35721 43.5715 2.34077 43.2268C2.32434 42.8821 2.46133 42.5479 2.71492 42.3138L17.8944 28.3138C18.3436 27.9033 19.0319 27.9033 19.4811 28.3138L34.5439 42.2077ZM53.3413 2.33334H56.0001V7H51.7849L53.3413 2.33334ZM44.3334 14H51.3334V16.3333C51.3334 16.9777 50.8111 17.5 50.1668 17.5H44.3334V14ZM56.0001 43.3207L51.3334 40.2092V36.0092L56.0001 39.1207V43.3207ZM51.3334 43.0127L56.0001 46.1242V50.3242L51.3334 47.2127V43.0127ZM56.0001 36.3207L51.3334 33.2092V29.0092L56.0001 32.1207V36.3207ZM51.3334 50.0127L56.0001 53.1242V57.3242L51.3334 54.2127V50.0127ZM56.0001 29.3207L51.3334 26.2092V24.5H56.0001V29.3207ZM51.3334 57.0127L56.0001 60.1242V60.6667H51.3334V57.0127ZM67.6668 67.6667H39.6668C39.6668 65.0894 41.7561 63 44.3334 63H63.0001C65.5774 63 67.6668 65.0894 67.6668 67.6667ZM59.5001 19.8333C59.5001 21.122 58.4554 22.1667 57.1668 22.1667H45.5001C44.8558 22.1667 44.3334 21.6443 44.3334 21V19.8333H50.1668C52.0998 19.8333 53.6668 18.2663 53.6668 16.3333V14H59.5001V19.8333ZM67.6668 11.6667H9.33342V9.33334H67.6668V11.6667Z" fill="black"/>
</g>
<defs>
<clipPath id="clip0_2824_11296">
<rect width="70" height="70" fill="white"/>
</clipPath>
</defs>
</svg>
