<svg width="172" height="51" viewBox="0 0 172 51" fill="none" xmlns="http://www.w3.org/2000/svg">
<path d="M60.7617 40.4686H63.9434C64.5957 40.4686 65.1562 40.5663 65.625 40.7616C66.0977 40.9569 66.4609 41.2459 66.7148 41.6288C66.9688 42.0116 67.0957 42.4823 67.0957 43.0409C67.0957 43.4979 67.0176 43.8905 66.8613 44.2186C66.709 44.5428 66.4922 44.8143 66.2109 45.0331C65.9336 45.2479 65.6074 45.4198 65.2324 45.5487L64.6758 45.8416H61.9102L61.8984 44.4706H63.9551C64.2637 44.4706 64.5195 44.4159 64.7227 44.3065C64.9258 44.1971 65.0781 44.0448 65.1797 43.8495C65.2852 43.6541 65.3379 43.4276 65.3379 43.1698C65.3379 42.8963 65.2871 42.66 65.1855 42.4608C65.084 42.2616 64.9297 42.1092 64.7227 42.0038C64.5156 41.8983 64.2559 41.8456 63.9434 41.8456H62.5195V48.9998H60.7617V40.4686ZM65.5312 48.9998L63.5859 45.1971L65.4434 45.1854L67.4121 48.9178V48.9998H65.5312ZM75.457 44.535V44.9393C75.457 45.5877 75.3691 46.1698 75.1934 46.6854C75.0176 47.201 74.7695 47.6405 74.4492 48.0038C74.1289 48.3631 73.7461 48.6385 73.3008 48.8299C72.8594 49.0213 72.3691 49.117 71.8301 49.117C71.2949 49.117 70.8047 49.0213 70.3594 48.8299C69.918 48.6385 69.5352 48.3631 69.2109 48.0038C68.8867 47.6405 68.6348 47.201 68.4551 46.6854C68.2793 46.1698 68.1914 45.5877 68.1914 44.9393V44.535C68.1914 43.8827 68.2793 43.3006 68.4551 42.7889C68.6309 42.2733 68.8789 41.8338 69.1992 41.4706C69.5234 41.1073 69.9062 40.8299 70.3477 40.6385C70.793 40.4471 71.2832 40.3514 71.8184 40.3514C72.3574 40.3514 72.8477 40.4471 73.2891 40.6385C73.7344 40.8299 74.1172 41.1073 74.4375 41.4706C74.7617 41.8338 75.0117 42.2733 75.1875 42.7889C75.3672 43.3006 75.457 43.8827 75.457 44.535ZM73.6816 44.9393V44.5233C73.6816 44.0702 73.6406 43.6717 73.5586 43.328C73.4766 42.9842 73.3555 42.6952 73.1953 42.4608C73.0352 42.2264 72.8398 42.0506 72.6094 41.9334C72.3789 41.8123 72.1152 41.7518 71.8184 41.7518C71.5215 41.7518 71.2578 41.8123 71.0273 41.9334C70.8008 42.0506 70.6074 42.2264 70.4473 42.4608C70.291 42.6952 70.1719 42.9842 70.0898 43.328C70.0078 43.6717 69.9668 44.0702 69.9668 44.5233V44.9393C69.9668 45.3885 70.0078 45.787 70.0898 46.1346C70.1719 46.4784 70.293 46.7694 70.4531 47.0077C70.6133 47.242 70.8086 47.4198 71.0391 47.5409C71.2695 47.662 71.5332 47.7225 71.8301 47.7225C72.127 47.7225 72.3906 47.662 72.6211 47.5409C72.8516 47.4198 73.0449 47.242 73.2012 47.0077C73.3574 46.7694 73.4766 46.4784 73.5586 46.1346C73.6406 45.787 73.6816 45.3885 73.6816 44.9393ZM83.7305 44.535V44.9393C83.7305 45.5877 83.6426 46.1698 83.4668 46.6854C83.291 47.201 83.043 47.6405 82.7227 48.0038C82.4023 48.3631 82.0195 48.6385 81.5742 48.8299C81.1328 49.0213 80.6426 49.117 80.1035 49.117C79.5684 49.117 79.0781 49.0213 78.6328 48.8299C78.1914 48.6385 77.8086 48.3631 77.4844 48.0038C77.1602 47.6405 76.9082 47.201 76.7285 46.6854C76.5527 46.1698 76.4648 45.5877 76.4648 44.9393V44.535C76.4648 43.8827 76.5527 43.3006 76.7285 42.7889C76.9043 42.2733 77.1523 41.8338 77.4727 41.4706C77.7969 41.1073 78.1797 40.8299 78.6211 40.6385C79.0664 40.4471 79.5566 40.3514 80.0918 40.3514C80.6309 40.3514 81.1211 40.4471 81.5625 40.6385C82.0078 40.8299 82.3906 41.1073 82.7109 41.4706C83.0352 41.8338 83.2852 42.2733 83.4609 42.7889C83.6406 43.3006 83.7305 43.8827 83.7305 44.535ZM81.9551 44.9393V44.5233C81.9551 44.0702 81.9141 43.6717 81.832 43.328C81.75 42.9842 81.6289 42.6952 81.4688 42.4608C81.3086 42.2264 81.1133 42.0506 80.8828 41.9334C80.6523 41.8123 80.3887 41.7518 80.0918 41.7518C79.7949 41.7518 79.5312 41.8123 79.3008 41.9334C79.0742 42.0506 78.8809 42.2264 78.7207 42.4608C78.5645 42.6952 78.4453 42.9842 78.3633 43.328C78.2812 43.6717 78.2402 44.0702 78.2402 44.5233V44.9393C78.2402 45.3885 78.2812 45.787 78.3633 46.1346C78.4453 46.4784 78.5664 46.7694 78.7266 47.0077C78.8867 47.242 79.082 47.4198 79.3125 47.5409C79.543 47.662 79.8066 47.7225 80.1035 47.7225C80.4004 47.7225 80.6641 47.662 80.8945 47.5409C81.125 47.4198 81.3184 47.242 81.4746 47.0077C81.6309 46.7694 81.75 46.4784 81.832 46.1346C81.9141 45.787 81.9551 45.3885 81.9551 44.9393ZM86.7539 40.4686V48.9998H84.9961V40.4686H86.7539ZM90.1523 44.1131V45.4842H86.2734V44.1131H90.1523ZM90.5625 40.4686V41.8456H86.2734V40.4686H90.5625ZM93.4512 40.4686V48.9998H91.6992V40.4686H93.4512ZM102.041 40.4686V48.9998H100.283L96.8555 43.2811V48.9998H95.0977V40.4686H96.8555L100.289 46.1932V40.4686H102.041ZM110.332 44.5409V47.9217C110.199 48.0819 109.994 48.2557 109.717 48.4432C109.439 48.6268 109.082 48.785 108.645 48.9178C108.207 49.0506 107.678 49.117 107.057 49.117C106.506 49.117 106.004 49.0272 105.551 48.8475C105.098 48.6639 104.707 48.3963 104.379 48.0448C104.055 47.6932 103.805 47.2635 103.629 46.7557C103.453 46.244 103.365 45.66 103.365 45.0038V44.4706C103.365 43.8143 103.449 43.2303 103.617 42.7186C103.789 42.2069 104.033 41.7752 104.35 41.4237C104.666 41.0721 105.043 40.8045 105.48 40.6209C105.918 40.4373 106.404 40.3456 106.939 40.3456C107.682 40.3456 108.291 40.4666 108.768 40.7088C109.244 40.9471 109.607 41.2791 109.857 41.7049C110.111 42.1268 110.268 42.6112 110.326 43.1581H108.621C108.578 42.869 108.496 42.617 108.375 42.4022C108.254 42.1873 108.08 42.0194 107.854 41.8983C107.631 41.7772 107.342 41.7166 106.986 41.7166C106.693 41.7166 106.432 41.7772 106.201 41.8983C105.975 42.0155 105.783 42.1893 105.627 42.4198C105.471 42.6502 105.352 42.9354 105.27 43.2752C105.188 43.6151 105.146 44.0096 105.146 44.4588V45.0038C105.146 45.4491 105.189 45.8436 105.275 46.1873C105.361 46.5272 105.488 46.8143 105.656 47.0487C105.828 47.2791 106.039 47.453 106.289 47.5702C106.539 47.6873 106.83 47.7459 107.162 47.7459C107.439 47.7459 107.67 47.7225 107.854 47.6756C108.041 47.6288 108.191 47.5721 108.305 47.5057C108.422 47.4354 108.512 47.369 108.574 47.3065V45.7948H106.969V44.5409H110.332ZM119.684 46.1698H121.436C121.4 46.744 121.242 47.2538 120.961 47.6991C120.684 48.1444 120.295 48.492 119.795 48.742C119.299 48.992 118.701 49.117 118.002 49.117C117.455 49.117 116.965 49.0233 116.531 48.8358C116.098 48.6444 115.727 48.3709 115.418 48.0155C115.113 47.66 114.881 47.2303 114.721 46.7264C114.561 46.2225 114.48 45.6581 114.48 45.0331V44.4413C114.48 43.8163 114.562 43.2518 114.727 42.7479C114.895 42.2401 115.133 41.8084 115.441 41.453C115.754 41.0975 116.127 40.8241 116.561 40.6327C116.994 40.4413 117.479 40.3456 118.014 40.3456C118.725 40.3456 119.324 40.4745 119.812 40.7323C120.305 40.9901 120.686 41.3456 120.955 41.7987C121.229 42.2518 121.393 42.7674 121.447 43.3456H119.689C119.67 43.0018 119.602 42.7108 119.484 42.4725C119.367 42.2303 119.189 42.0487 118.951 41.9276C118.717 41.8026 118.404 41.7401 118.014 41.7401C117.721 41.7401 117.465 41.7948 117.246 41.9041C117.027 42.0135 116.844 42.1795 116.695 42.4022C116.547 42.6248 116.436 42.9061 116.361 43.2459C116.291 43.5819 116.256 43.9764 116.256 44.4295V45.0331C116.256 45.4745 116.289 45.8631 116.355 46.1991C116.422 46.5311 116.523 46.8123 116.66 47.0428C116.801 47.2694 116.98 47.4413 117.199 47.5584C117.422 47.6717 117.689 47.7284 118.002 47.7284C118.369 47.7284 118.672 47.6698 118.91 47.5526C119.148 47.4354 119.33 47.2616 119.455 47.0311C119.584 46.8006 119.66 46.5135 119.684 46.1698ZM129.598 44.535V44.9393C129.598 45.5877 129.51 46.1698 129.334 46.6854C129.158 47.201 128.91 47.6405 128.59 48.0038C128.27 48.3631 127.887 48.6385 127.441 48.8299C127 49.0213 126.51 49.117 125.971 49.117C125.436 49.117 124.945 49.0213 124.5 48.8299C124.059 48.6385 123.676 48.3631 123.352 48.0038C123.027 47.6405 122.775 47.201 122.596 46.6854C122.42 46.1698 122.332 45.5877 122.332 44.9393V44.535C122.332 43.8827 122.42 43.3006 122.596 42.7889C122.771 42.2733 123.02 41.8338 123.34 41.4706C123.664 41.1073 124.047 40.8299 124.488 40.6385C124.934 40.4471 125.424 40.3514 125.959 40.3514C126.498 40.3514 126.988 40.4471 127.43 40.6385C127.875 40.8299 128.258 41.1073 128.578 41.4706C128.902 41.8338 129.152 42.2733 129.328 42.7889C129.508 43.3006 129.598 43.8827 129.598 44.535ZM127.822 44.9393V44.5233C127.822 44.0702 127.781 43.6717 127.699 43.328C127.617 42.9842 127.496 42.6952 127.336 42.4608C127.176 42.2264 126.98 42.0506 126.75 41.9334C126.52 41.8123 126.256 41.7518 125.959 41.7518C125.662 41.7518 125.398 41.8123 125.168 41.9334C124.941 42.0506 124.748 42.2264 124.588 42.4608C124.432 42.6952 124.312 42.9842 124.23 43.328C124.148 43.6717 124.107 44.0702 124.107 44.5233V44.9393C124.107 45.3885 124.148 45.787 124.23 46.1346C124.312 46.4784 124.434 46.7694 124.594 47.0077C124.754 47.242 124.949 47.4198 125.18 47.5409C125.41 47.662 125.674 47.7225 125.971 47.7225C126.268 47.7225 126.531 47.662 126.762 47.5409C126.992 47.4198 127.186 47.242 127.342 47.0077C127.498 46.7694 127.617 46.4784 127.699 46.1346C127.781 45.787 127.822 45.3885 127.822 44.9393ZM131.666 40.4686H133.154L135.346 46.7323L137.537 40.4686H139.025L135.943 48.9998H134.748L131.666 40.4686ZM130.863 40.4686H132.346L132.615 46.5741V48.9998H130.863V40.4686ZM138.346 40.4686H139.834V48.9998H138.076V46.5741L138.346 40.4686ZM144.697 45.9588H142.523V44.5877H144.697C145.033 44.5877 145.307 44.5331 145.518 44.4237C145.729 44.3104 145.883 44.1541 145.98 43.9549C146.078 43.7557 146.127 43.5311 146.127 43.2811C146.127 43.0272 146.078 42.7909 145.98 42.5721C145.883 42.3534 145.729 42.1776 145.518 42.0448C145.307 41.912 145.033 41.8456 144.697 41.8456H143.133V48.9998H141.375V40.4686H144.697C145.365 40.4686 145.938 40.5897 146.414 40.8319C146.895 41.0702 147.262 41.4002 147.516 41.8221C147.77 42.244 147.896 42.7264 147.896 43.2694C147.896 43.8202 147.77 44.2967 147.516 44.6991C147.262 45.1014 146.895 45.412 146.414 45.6307C145.938 45.8495 145.365 45.9588 144.697 45.9588ZM151.605 41.9276L149.285 48.9998H147.416L150.586 40.4686H151.775L151.605 41.9276ZM153.533 48.9998L151.207 41.9276L151.02 40.4686H152.221L155.408 48.9998H153.533ZM153.428 45.8241V47.201H148.922V45.8241H153.428ZM163.143 40.4686V48.9998H161.385L157.957 43.2811V48.9998H156.199V40.4686H157.957L161.391 46.1932V40.4686H163.143ZM165.68 40.4686L167.461 44.3592L169.242 40.4686H171.158L168.352 45.8944V48.9998H166.57V45.8944L163.758 40.4686H165.68Z" fill="#CDCDCD"/>
<path d="M62.52 26.9998V1.07985H73.23C73.482 1.07985 73.806 1.09185 74.202 1.11585C74.598 1.12785 74.964 1.16385 75.3 1.22385C76.8 1.45185 78.036 1.94985 79.008 2.71785C79.992 3.48585 80.718 4.45785 81.186 5.63385C81.666 6.79785 81.906 8.09385 81.906 9.52185C81.906 11.6338 81.372 13.4518 80.304 14.9758C79.236 16.4878 77.598 17.4238 75.39 17.7838L73.536 17.9458H66.858V26.9998H62.52ZM77.406 26.9998L72.294 16.4518L76.704 15.4798L82.32 26.9998H77.406ZM66.858 13.8958H73.05C73.29 13.8958 73.56 13.8838 73.86 13.8598C74.16 13.8358 74.436 13.7878 74.688 13.7158C75.408 13.5358 75.972 13.2178 76.38 12.7618C76.8 12.3058 77.094 11.7898 77.262 11.2138C77.442 10.6378 77.532 10.0738 77.532 9.52185C77.532 8.96985 77.442 8.40585 77.262 7.82985C77.094 7.24185 76.8 6.71985 76.38 6.26385C75.972 5.80785 75.408 5.48985 74.688 5.30985C74.436 5.23785 74.16 5.19585 73.86 5.18385C73.56 5.15985 73.29 5.14785 73.05 5.14785H66.858V13.8958ZM93.5756 27.5578C92.1356 27.5578 90.9476 27.3178 90.0116 26.8378C89.0756 26.3578 88.3316 25.7458 87.7796 25.0018C87.2276 24.2578 86.8196 23.4658 86.5556 22.6258C86.2916 21.7858 86.1176 20.9938 86.0336 20.2498C85.9616 19.4938 85.9256 18.8818 85.9256 18.4138V7.55985H90.3176V16.9198C90.3176 17.5198 90.3596 18.1978 90.4436 18.9538C90.5276 19.6978 90.7196 20.4178 91.0196 21.1138C91.3316 21.7978 91.7876 22.3618 92.3876 22.8058C92.9996 23.2498 93.8216 23.4718 94.8536 23.4718C95.4056 23.4718 95.9516 23.3818 96.4916 23.2018C97.0316 23.0218 97.5176 22.7158 97.9496 22.2838C98.3936 21.8398 98.7476 21.2338 99.0116 20.4658C99.2756 19.6978 99.4076 18.7258 99.4076 17.5498L101.982 18.6478C101.982 20.3038 101.658 21.8038 101.01 23.1478C100.374 24.4918 99.4316 25.5658 98.1836 26.3698C96.9356 27.1618 95.3996 27.5578 93.5756 27.5578ZM99.9296 26.9998V20.9698H99.4076V7.55985H103.764V26.9998H99.9296ZM110.513 26.9998V7.25385C110.513 6.76185 110.531 6.22185 110.567 5.63385C110.603 5.03385 110.705 4.43985 110.873 3.85185C111.041 3.26385 111.347 2.72985 111.791 2.24985C112.343 1.63785 112.937 1.21785 113.573 0.989846C114.221 0.749847 114.857 0.617846 115.481 0.593845C116.105 0.557846 116.651 0.539847 117.119 0.539847H119.549V4.06785H117.299C116.471 4.06785 115.853 4.27785 115.445 4.69785C115.049 5.10585 114.851 5.64585 114.851 6.31785V26.9998H110.513ZM107.381 10.9618V7.55985H119.549V10.9618H107.381ZM122.627 26.9998V7.25385C122.627 6.76185 122.645 6.22185 122.681 5.63385C122.717 5.03385 122.819 4.43985 122.987 3.85185C123.155 3.26385 123.461 2.72985 123.905 2.24985C124.457 1.63785 125.051 1.21785 125.687 0.989846C126.335 0.749847 126.971 0.617846 127.595 0.593845C128.219 0.557846 128.765 0.539847 129.233 0.539847H131.663V4.06785H129.413C128.585 4.06785 127.967 4.27785 127.559 4.69785C127.163 5.10585 126.965 5.64585 126.965 6.31785V26.9998H122.627ZM119.495 10.9618V7.55985H131.663V10.9618H119.495ZM142.69 27.5398C140.722 27.5398 138.994 27.1138 137.506 26.2618C136.018 25.4098 134.854 24.2278 134.014 22.7158C133.186 21.2038 132.772 19.4638 132.772 17.4958C132.772 15.3718 133.18 13.5298 133.996 11.9698C134.812 10.3978 135.946 9.17985 137.398 8.31585C138.85 7.45185 140.53 7.01985 142.438 7.01985C144.454 7.01985 146.164 7.49385 147.568 8.44185C148.984 9.37785 150.034 10.7038 150.718 12.4198C151.402 14.1358 151.66 16.1578 151.492 18.4858H147.19V16.9018C147.178 14.7898 146.806 13.2478 146.074 12.2758C145.342 11.3038 144.19 10.8178 142.618 10.8178C140.842 10.8178 139.522 11.3698 138.658 12.4738C137.794 13.5658 137.362 15.1678 137.362 17.2798C137.362 19.2478 137.794 20.7718 138.658 21.8518C139.522 22.9318 140.782 23.4718 142.438 23.4718C143.506 23.4718 144.424 23.2378 145.192 22.7698C145.972 22.2898 146.572 21.5998 146.992 20.6998L151.276 21.9958C150.532 23.7478 149.38 25.1098 147.82 26.0818C146.272 27.0538 144.562 27.5398 142.69 27.5398ZM135.994 18.4858V15.2098H149.368V18.4858H135.994ZM155.508 26.9998V7.55985H159.342V12.2938L158.874 11.6818C159.114 11.0338 159.432 10.4458 159.828 9.91785C160.236 9.37785 160.722 8.93385 161.286 8.58585C161.766 8.26185 162.294 8.00985 162.87 7.82985C163.458 7.63785 164.058 7.52385 164.67 7.48785C165.282 7.43985 165.876 7.46385 166.452 7.55985V11.6098C165.876 11.4418 165.21 11.3878 164.454 11.4478C163.71 11.5078 163.038 11.7178 162.438 12.0778C161.838 12.4018 161.346 12.8158 160.962 13.3198C160.59 13.8238 160.314 14.3998 160.134 15.0478C159.954 15.6838 159.864 16.3738 159.864 17.1178V26.9998H155.508Z" fill="white"/>
<path d="M40.6798 17.9239C40.2841 17.8764 39.9067 17.9357 39.5687 18.0756L33.8564 12.1632C34.0091 11.7859 34.0828 11.3657 34.0553 10.9248C33.9709 9.56995 32.9146 8.47017 31.6071 8.37544C31.2266 8.34787 30.862 8.4043 30.5284 8.52802C30.3914 8.57888 30.3546 8.76252 30.4576 8.86916L31.92 10.3824L30.7411 11.6045L29.2692 10.0814C29.1669 9.97554 28.9911 10.0124 28.9406 10.1528C28.8152 10.5017 28.7564 10.884 28.7808 11.2838C28.8651 12.6532 29.9414 13.7606 31.2641 13.8387C31.6931 13.8641 32.1012 13.7828 32.4667 13.619L38.2343 19.5887C38.1481 19.8891 38.1171 20.2141 38.1571 20.552C38.2899 21.6741 39.1976 22.55 40.2876 22.6098C41.6475 22.6845 42.764 21.5195 42.6783 20.1081C42.6097 18.983 41.7611 18.054 40.6798 17.9239ZM40.8019 21.3398L39.7043 21.1506L39.3136 20.0716L40.0205 19.1814L41.1181 19.3706L41.5088 20.4497L40.8019 21.3398Z" fill="white"/>
<path d="M41.7707 8.18777L40.3729 9.27371L39.8923 10.3596L36.2666 14.2056L36.7035 14.7487L40.3729 10.9025L41.4213 10.2692L42.4697 8.95703L41.7707 8.18777Z" fill="white"/>
<path d="M32.9113 16.1181C33.0291 16.289 32.9973 16.5253 32.8388 16.6561L29.2017 19.662C29.0692 19.7714 28.9722 19.9196 28.9216 20.0872C28.7764 20.5677 28.5733 21.5627 29.1899 22.0332C29.6974 22.4206 30.2538 22.4527 30.6096 22.4192C30.8279 22.3986 31.0297 22.2916 31.1731 22.1198L34.3385 18.3274C34.4833 18.154 34.7398 18.1443 34.8963 18.3064C34.9769 18.3899 35.1079 18.388 35.1861 18.3022L35.4321 18.0323C35.6312 17.814 35.6326 17.4733 35.4353 17.2531L33.86 15.4959C33.6648 15.2782 33.341 15.2522 33.1158 15.4364L32.9908 15.5386C32.8193 15.679 32.7844 15.934 32.9113 16.1181Z" fill="white"/>
<path d="M17.4418 0.999847C11.5952 0.999847 6.85547 5.90926 6.85547 11.9652V20.6446L10.8505 17.9129V11.9652C10.8505 8.20044 13.8074 5.13781 17.4418 5.13781H46.005V34.7237C46.005 38.4884 43.0481 41.5509 39.4136 41.5509H34.7332V45.689H39.4136C45.2603 45.689 49.9999 40.7796 49.9999 34.7237V0.999847H17.4418Z" fill="white"/>
<path d="M16.6938 16.1843L0 27.599H6.57565V45.1848H26.6661V27.4039H32.8915L16.6938 16.1843ZM16.0955 34.4327V38.0392H15.5412H12.4265V34.4327V34.2388H15.5412H16.0955V34.4327ZM16.0955 32.5244V32.7185H15.5412H12.4265V32.5244V28.9179H15.5412H16.0955V32.5244ZM20.8654 34.4327V38.0392H17.7505H17.1964V34.4327V34.2388H17.7505H20.8654V34.4327ZM20.8654 32.5244V32.7185H17.7505H17.1964V32.5244V28.9179H17.7505H20.8654V32.5244Z" fill="#141422"/>
<path d="M28.0576 49.2296C29.9499 46.9534 28.3629 45.6257 28.3629 45.6257V41.5792C29.7057 35.6361 34.1617 35.9521 34.1617 35.9521C29.2784 39.2398 31.9032 41.6424 31.9032 41.6424V41.7057H34.0397V45.6889H31.9032C29.8278 47.4591 32.0863 49.2296 32.0863 49.2296V50.9998H28.0576V49.2296Z" fill="white"/>
</svg>
